<?xml version="1.0" encoding="UTF-8"?>
<svg version="1.1" xmlns="http://www.w3.org/2000/svg" width="3000" height="2000">
<path d="M0 0 C5.1763991 4.33058658 10.01501169 8.87466826 14.77571106 13.65545654 C15.90350095 14.78196479 15.90350095 14.78196479 17.05407447 15.93123078 C19.55901801 18.43453442 22.06038361 20.94138209 24.56176758 23.44824219 C26.36227293 25.24902976 28.1629988 27.04959686 29.96392822 28.84996033 C33.83405221 32.71985699 37.70264373 36.5912753 41.56983376 40.4641037 C47.16323174 46.06565129 52.75941039 51.66441413 58.3562574 57.26251534 C67.44087972 66.3493233 76.52326948 75.43835933 85.60424805 84.52880859 C94.41752808 93.35127052 103.23185968 102.17267965 112.04760742 110.99267578 C112.59125774 111.53658882 113.13490806 112.08050187 113.69503263 112.64089713 C116.42282369 115.36999339 119.15063548 118.09906891 121.87845767 120.82813406 C142.91669662 141.87600805 163.95196419 162.92684868 184.98479205 183.98012996 C185.62191865 184.61787325 186.25904524 185.25561655 186.91547871 185.91268539 C187.46683532 186.46458408 188.01819193 187.01648277 188.58625633 187.58510566 C189.72389961 188.72367489 190.86189365 189.86189365 192 191 C128.97 254.03 65.94 317.06 1 382 C-6.875 375.25 -6.875 375.25 -9.73493099 372.38811684 C-10.38981312 371.73522576 -11.04469524 371.08233468 -11.71942228 370.40965903 C-12.41496688 369.71120159 -13.11051147 369.01274415 -13.82713318 368.29312134 C-14.58448779 367.53662115 -15.3418424 366.78012097 -16.12214714 366.00069654 C-18.64557819 363.47890551 -21.16543124 360.95357014 -23.68530273 358.42822266 C-25.49890521 356.61433796 -27.31272821 354.80067372 -29.12675476 352.98721313 C-33.02471203 349.08948319 -36.92113703 345.1902317 -40.8161602 341.28956985 C-46.44762543 335.64995751 -52.081869 330.01312755 -57.71678186 324.3769602 C-66.8602659 315.23129069 -76.00151723 306.08339295 -85.14135742 296.93408203 C-94.0168093 288.04944299 -102.89331692 279.16586091 -111.77124023 270.28369141 C-112.31900836 269.73566056 -112.86677648 269.18762972 -113.43114363 268.62299187 C-116.17930107 265.87352935 -118.92747921 263.12408751 -121.67566764 260.37465596 C-144.45365553 237.58631116 -167.22801683 214.79434527 -190 192 C-188.6496271 188.98993657 -187.14752128 186.89832352 -184.81783867 184.57174301 C-184.1589782 183.90890045 -183.50011774 183.24605789 -182.8212918 182.56312919 C-182.09561921 181.84328227 -181.36994661 181.12343536 -180.62228394 180.3817749 C-179.85286724 179.61064936 -179.08345055 178.83952382 -178.2907182 178.04503083 C-175.70359142 175.45460195 -173.10936644 172.87140001 -170.51513672 170.28808594 C-168.66221905 168.43573223 -166.80974131 166.58293838 -164.95767212 164.72973633 C-160.96561378 160.73662911 -156.9699089 156.74720111 -152.97170639 152.76024628 C-147.19097872 146.99577028 -141.41577929 141.22578184 -135.64191569 135.45443156 C-126.27413653 126.09103003 -116.90189942 116.73210385 -107.52685547 107.37597656 C-98.41969562 98.28717376 -89.31463797 89.19627348 -80.21240234 80.10253906 C-79.65137262 79.54203479 -79.0903429 78.98153051 -78.51231228 78.40404126 C-75.69781377 75.59215282 -72.88335656 72.78022303 -70.0689199 69.96827269 C-46.71901416 46.63910155 -23.36187271 23.31718747 0 0 Z " fill="#EE433A" transform="translate(536,786)"/>
<path d="M0 0 C114.2641129 0 114.2641129 0 132 3.6875 C133.21490112 3.93850464 133.21490112 3.93850464 134.4543457 4.19458008 C155.93248053 8.9024283 175.15551321 17.9013953 192 32 C192.79664063 32.63292969 193.59328125 33.26585937 194.4140625 33.91796875 C219.2313657 54.48212988 231.36640866 87.84429622 234.53515625 119.03515625 C238.32839503 162.14970294 230.65081433 205.26667138 202.4765625 239.0234375 C177.9496515 267.44126446 142.23076882 278.32031254 106 282 C70.71393324 283.85716141 35.33490563 283 0 283 C0 189.61 0 96.22 0 0 Z M61 50 C61 110.06 61 170.12 61 232 C108.48761902 233.0955125 108.48761902 233.0955125 148.84863281 211.4855957 C165.59556499 194.62133198 171.33264608 170.12526418 172 147 C172.03996094 145.85917969 172.07992188 144.71835937 172.12109375 143.54296875 C172.57460629 118.49307024 168.93020773 90.38196191 151.3125 71.25 C148.0726769 67.89296188 144.81051243 64.70464232 141 62 C140.01 62 139.02 62 138 62 C138 61.34 138 60.68 138 60 C135.65412255 58.87484196 133.30041898 57.77588807 130.9375 56.6875 C130.30005859 56.37876953 129.66261719 56.07003906 129.00585938 55.75195312 C107.91586089 46.16559018 83.01198292 50 61 50 Z " fill="#000000" transform="translate(1741,836)"/>
<path d="M0 0 C1.31238144 0.00222061 2.62476288 0.00444122 3.97691345 0.00672913 C4.6988237 0.0065831 5.42073395 0.00643707 6.16452026 0.00628662 C8.56156879 0.00698583 10.95854054 0.01477857 13.35557556 0.02259827 C15.0132442 0.02446242 16.67091338 0.02588633 18.32858276 0.02688599 C22.69996145 0.03071139 27.07130712 0.04054186 31.44267273 0.05158997 C35.89996392 0.0618036 40.35726043 0.0663835 44.81455994 0.07142639 C53.56652824 0.08216412 62.31846968 0.0992408 71.07041931 0.12025452 C74.54831205 8.22596463 77.67369439 16.39456035 80.55479431 24.72962952 C80.96753601 25.91371399 81.38027771 27.09779846 81.80552673 28.31776428 C82.68846744 30.85178597 83.57016596 33.38619724 84.44969177 35.92140198 C86.55622177 41.99272085 88.67443199 48.0599701 90.79116058 54.12773895 C91.50879307 56.18525965 92.22600596 58.24292625 92.94316101 60.3006134 C97.1975567 72.50398933 101.49864797 84.6905776 105.82041931 96.87025452 C106.51361824 98.82484354 107.20681485 100.77943338 107.90000916 102.73402405 C109.27238997 106.60285518 110.64532859 110.47148782 112.0186615 114.33998108 C115.49778443 124.14048504 118.9722761 133.94263006 122.44541931 143.74525452 C122.7931842 144.72667419 123.1409491 145.70809387 123.49925232 146.71925354 C129.21244649 162.84491736 134.89639473 178.98077159 140.57041931 195.12025452 C146.86426799 213.02271088 153.17354193 230.91959498 159.50791931 248.80775452 C159.86531189 249.81749329 160.22270447 250.82723206 160.59092712 251.86756897 C161.60306314 254.72673553 162.61595665 257.58563271 163.62901306 260.44447327 C163.93757233 261.31659454 164.24613159 262.18871582 164.56404114 263.08726501 C166.47219397 268.47033838 168.42447189 273.83428803 170.46128845 279.17030334 C171.07041931 281.12025452 171.07041931 281.12025452 171.07041931 284.12025452 C149.62041931 284.12025452 128.17041931 284.12025452 106.07041931 284.12025452 C101.56965012 272.86833153 101.56965012 272.86833153 100.05577087 267.96791077 C99.71572021 266.8739801 99.37566956 265.78004944 99.02531433 264.65296936 C98.67410522 263.50779846 98.32289612 262.36262756 97.96104431 261.18275452 C97.58937134 259.98086487 97.21769836 258.77897522 96.83476257 257.54066467 C95.85848562 254.37947507 94.88609702 251.21712249 93.91520691 248.05427551 C93.11787988 245.46167403 92.31532952 242.87070194 91.5127449 240.27972412 C90.55507773 237.18580472 89.60193371 234.09049431 88.64854431 230.99525452 C88.28923828 229.83388977 87.92993225 228.67252502 87.55973816 227.47596741 C87.23229614 226.40725403 86.90485413 225.33854065 86.56748962 224.23744202 C86.27755127 223.2949762 85.98761292 222.35251038 85.68888855 221.38148499 C85.07041931 219.12025452 85.07041931 219.12025452 85.07041931 217.12025452 C51.41041931 217.12025452 17.75041931 217.12025452 -16.92958069 217.12025452 C-17.58958069 220.09025452 -18.24958069 223.06025452 -18.92958069 226.12025452 C-19.52698836 228.24395954 -20.15173185 230.36024592 -20.80897522 232.46620178 C-21.17418274 233.64267273 -21.53939026 234.81914368 -21.91566467 236.03126526 C-22.29408508 237.23754578 -22.67250549 238.44382629 -23.06239319 239.68666077 C-23.41422668 240.81777283 -23.76606018 241.94888489 -24.1285553 243.11427307 C-25.43325114 247.30500783 -26.74428366 251.49376768 -28.05458069 255.68275452 C-30.98333069 265.06712952 -33.91208069 274.45150452 -36.92958069 284.12025452 C-58.70958069 284.12025452 -80.48958069 284.12025452 -102.92958069 284.12025452 C-99.5545673 271.74520543 -99.5545673 271.74520543 -98.11463928 267.67616272 C-97.78865753 266.74886856 -97.46267578 265.8215744 -97.1268158 264.86618042 C-96.60766098 263.40833382 -96.60766098 263.40833382 -96.07801819 261.92103577 C-95.70701996 260.86925644 -95.33602173 259.81747711 -94.95378113 258.73382568 C-93.74109717 255.29880895 -92.52287534 251.86578487 -91.30458069 248.43275452 C-90.446817 246.00644304 -89.5894004 243.58000883 -88.73231506 241.15345764 C-86.54992089 234.9778538 -84.36291967 228.80389406 -82.17408752 222.63056946 C-80.3020806 217.35029803 -78.43234615 212.06922235 -76.56239319 206.78822327 C-74.49155323 200.94064129 -72.42015335 195.09325914 -70.34706116 189.24647522 C-65.01761536 174.21268508 -59.71932003 159.1680562 -54.42958069 144.12025452 C-46.34268798 121.11687353 -38.2150003 98.12817174 -30.06629944 75.1466217 C-26.6786343 65.59248196 -23.29257625 56.037773 -19.90742493 46.48274231 C-18.84662369 43.48890984 -17.78534208 40.495248 -16.72401428 37.50160217 C-16.06073802 35.62970439 -15.39748873 33.75779704 -14.73426819 31.88587952 C-14.41694733 30.99109894 -14.09962646 30.09631836 -13.77268982 29.17442322 C-12.13957168 24.56321981 -10.51976587 19.94781876 -8.9188385 15.32533264 C-8.43485092 13.93069794 -8.43485092 13.93069794 -7.94108582 12.50788879 C-7.32662091 10.73488428 -6.71459137 8.96103335 -6.10533142 7.18623352 C-3.66574592 0.1504729 -3.66574592 0.1504729 0 0 Z M34.07041931 47.12025452 C29.71671952 61.29695321 25.4757706 75.5012955 21.3568573 89.74787903 C15.52890805 109.89576453 9.51509911 129.98129082 3.3377533 150.02479553 C2.90690178 151.42776131 2.90690178 151.42776131 2.46734619 152.85906982 C1.9298484 154.60878275 1.39000741 156.35777817 0.84744263 158.10592651 C-0.45382665 162.03981659 -0.45382665 162.03981659 -0.92958069 166.12025452 C22.83041931 166.12025452 46.59041931 166.12025452 71.07041931 166.12025452 C69.35338806 160.56052795 67.63635681 155.00080139 65.86729431 149.27259827 C59.51764044 128.66426278 53.30281336 108.01656142 47.12095642 87.3573761 C45.75362641 82.78908024 44.38458989 78.22129581 43.01573181 73.65345764 C40.36570094 64.80953332 37.71743256 55.96508245 35.07041931 47.12025452 C34.74041931 47.12025452 34.41041931 47.12025452 34.07041931 47.12025452 Z " fill="#000000" transform="translate(1057.9295806884766,834.8797454833984)"/>
<path d="M0 0 C19.47 0 38.94 0 59 0 C59.04559067 17.85821646 59.08224249 35.7163813 59.10362434 53.57464027 C59.11382728 61.87123367 59.12772339 70.16778731 59.15087891 78.46435547 C59.34666211 149.97211 59.34666211 149.97211 57 180 C58.42053027 178.27543624 59.83939087 176.54949711 61.25756836 174.82299805 C62.44303505 173.38152657 62.44303505 173.38152657 63.65245056 171.91093445 C67.74800245 166.83249696 71.5723081 161.55402628 75.40429688 156.27539062 C79.02218681 151.37385652 82.80609531 146.97064651 87.20629883 142.75292969 C88.94711912 141.05167888 90.54392899 139.28687723 92.125 137.4375 C95.6001366 133.39645813 99.22994884 129.51199636 102.875 125.625 C106.78880679 121.45003426 110.68810905 117.2687468 114.5 113 C118.84806035 108.13179785 123.30434986 103.3684272 127.77734375 98.61523438 C128.61652344 97.72094727 128.61652344 97.72094727 129.47265625 96.80859375 C130.02248672 96.23950287 130.5723172 95.67041199 131.1388092 95.08407593 C133.04921954 93.04065097 133.04921954 93.04065097 134.55174255 90.69021606 C137.37195077 86.76195254 139.49864637 84.35899868 144.30213928 83.21040344 C148.37773133 82.95855022 152.36064164 82.98542283 156.4375 83.12109375 C157.92818335 83.13790548 159.41891686 83.15070455 160.90966797 83.15968323 C164.81052906 83.19385027 168.70831522 83.28206891 172.60797119 83.38201904 C176.59629725 83.47452468 180.58512635 83.51528335 184.57421875 83.56054688 C192.38420596 83.65671954 200.19167021 83.81006533 208 84 C206.61719461 86.86640164 205.25999446 89.0125854 203.05859375 91.3203125 C202.47964355 91.93277832 201.90069336 92.54524414 201.30419922 93.17626953 C200.68818848 93.81935059 200.07217773 94.46243164 199.4375 95.125 C198.15687412 96.47852554 196.87692557 97.83269225 195.59765625 99.1875 C194.97648926 99.84363281 194.35532227 100.49976563 193.71533203 101.17578125 C191.56643871 103.46108311 189.4645098 105.78536472 187.375 108.125 C183.48860373 112.47200619 179.54304719 116.76084317 175.58374023 121.04125977 C172.19297714 124.70710932 168.8104369 128.38024129 165.4375 132.0625 C164.76182983 132.80004517 164.76182983 132.80004517 164.07250977 133.55249023 C162.71482037 135.03482316 161.35736493 136.51736995 160 138 C154.34468938 144.17721384 148.68291757 150.3481616 143 156.5 C142.00257031 157.58069792 141.00517442 158.66142703 140.0078125 159.7421875 C138.4839894 161.39341057 136.95937122 163.04386895 135.43261719 164.69238281 C133.91156427 166.33489224 132.39307864 167.9797419 130.875 169.625 C129.98554688 170.58664062 129.09609375 171.54828125 128.1796875 172.5390625 C125.90548919 174.99395984 125.90548919 174.99395984 124 178 C131.24009583 187.90542467 138.54250922 197.75691462 146 207.5 C154.04134601 218.01136754 161.89060525 228.65631231 169.70898438 239.33398438 C176.39064708 248.45365399 183.13158424 257.51987661 190 266.5 C195.32710292 273.47368556 200.63503699 280.46050899 205.875 287.5 C206.46410156 288.28310547 207.05320312 289.06621094 207.66015625 289.87304688 C208.20285156 290.60587891 208.74554687 291.33871094 209.3046875 292.09375 C209.77890137 292.72990234 210.25311523 293.36605469 210.74169922 294.02148438 C212.16349689 296.25707777 213.0440582 298.53445476 214 301 C205.30737381 301.3024435 196.61658079 301.53278695 187.9198246 301.67355824 C183.88035767 301.74115893 179.84451129 301.83265844 175.80712891 301.98071289 C171.90344722 302.12295319 168.00322328 302.19988034 164.0971489 302.23340416 C162.61441966 302.25725837 161.13186108 302.30385273 159.65062332 302.37449074 C148.38371672 302.88996313 148.38371672 302.88996313 144.40094185 299.73216438 C141.00775988 296.19520516 138.51488681 292.18579312 136 288 C134.96600873 286.53804 133.92189092 285.0830057 132.85546875 283.64453125 C131.96352054 282.36901931 131.07418631 281.0916754 130.1875 279.8125 C126.00806957 273.83798783 121.780583 267.90247031 117.5 262 C113.29288385 256.19451713 109.12429566 250.36460539 105 244.5 C100.67360673 238.35497409 96.32237008 232.22846417 91.9375 226.125 C91.38900391 225.35736328 90.84050781 224.58972656 90.27539062 223.79882812 C89.50291992 222.72665039 89.50291992 222.72665039 88.71484375 221.6328125 C88.03603149 220.68752686 88.03603149 220.68752686 87.34350586 219.72314453 C86.00444229 218.00569756 84.57207612 216.50427691 83 215 C82.55197021 215.36762451 82.10394043 215.73524902 81.64233398 216.11401367 C79.57590054 217.80744085 77.50672292 219.49748269 75.4375 221.1875 C74.73302734 221.76564453 74.02855469 222.34378906 73.30273438 222.93945312 C72.25375977 223.79506836 72.25375977 223.79506836 71.18359375 224.66796875 C70.54993896 225.18641357 69.91628418 225.7048584 69.26342773 226.23901367 C67 228 67 228 65.21192932 228.78083801 C62.87333526 229.96075461 61.59200436 230.89831252 60 233 C58.92451201 238.09980158 59.04454483 243.17923345 59.09765625 248.36328125 C59.08826808 249.88073362 59.07580836 251.39816984 59.06040955 252.91557312 C59.02820561 256.89926385 59.03761698 260.88180254 59.05578613 264.86553955 C59.06891524 269.65062009 59.03019987 274.43552991 59.00020599 279.22049713 C58.96048384 286.4809731 58.98649212 293.73854962 59 301 C39.53 301 20.06 301 0 301 C0 201.67 0 102.34 0 0 Z " fill="#000000" transform="translate(2440,818)"/>
<path d="M0 0 C21.78 0 43.56 0 66 0 C77.05378449 32.59083555 77.05378449 32.59083555 81.72265625 46.421875 C85.06737847 56.32985461 88.41767337 66.23585133 91.78584003 76.1358881 C93.71979436 81.8224106 95.64446518 87.5120249 97.56253338 93.20392513 C98.69440548 96.56173894 99.83034765 99.91803279 100.97714233 103.27078247 C106.94330325 120.72522347 111.74878392 137.68524335 114 156 C114.1129456 155.36430902 114.22589121 154.72861805 114.34225941 154.07366371 C117.21746963 138.17306017 121.17097911 123.06400206 126.35546875 107.7734375 C127.06557755 105.64185526 127.77430956 103.50981394 128.48176575 101.37734985 C130.32750038 95.82519563 132.19054051 90.27901524 134.0579834 84.73413086 C135.92681255 79.1763182 137.78051338 73.61347072 139.63476562 68.05078125 C141.78775943 61.59394221 143.94155861 55.13738828 146.10275269 48.68328857 C151.52214452 32.49244132 156.8001928 16.26289848 162 0 C183.12 0 204.24 0 226 0 C225.22115246 4.67308522 224.33136701 8.2082757 222.70605469 12.56738281 C222.47319763 13.19639496 222.24034058 13.8254071 222.00042725 14.47348022 C221.22944033 16.55200304 220.45075449 18.62754818 219.671875 20.703125 C219.12109224 22.18235589 218.57074732 23.66174987 218.02081299 25.14129639 C216.86056814 28.25949054 215.69682975 31.37634914 214.53027344 34.4921875 C213.07706272 38.37370101 211.62949279 42.25728148 210.18430805 46.14178944 C203.74546399 63.44686369 197.2175815 80.71627085 190.6078949 97.95677185 C186.1946023 109.47059544 181.84617124 121.00786917 177.5291748 132.5581665 C175.32634374 138.45024784 173.11778753 144.34018465 170.91015625 150.23046875 C170.43797155 151.49051675 169.96579346 152.75056722 169.49362183 154.01062012 C167.99598036 158.00716723 166.49805893 162.00360935 165 166 C164.73156029 166.71613716 164.46312057 167.43227432 164.18654633 168.17011261 C160.73598965 177.37485664 157.28238659 186.57844778 153.82274723 195.7797823 C152.41054408 199.53587472 150.99940649 203.29235803 149.59121704 207.04995728 C139.45286382 234.0987416 139.45286382 234.0987416 134.015625 247.48046875 C133.49878143 248.75919357 133.49878143 248.75919357 132.97149658 250.06375122 C127.78280581 262.66301396 121.21707237 273.90511122 112 284 C111.24203125 284.85078125 110.4840625 285.7015625 109.703125 286.578125 C93.84983836 303.46757417 72.20297846 311.47490897 49.33984375 312.24609375 C25.0503114 312.68343713 25.0503114 312.68343713 14 309 C14 293.16 14 277.32 14 261 C17.3 261.33 20.6 261.66 24 262 C41.05883911 263.14312421 41.05883911 263.14312421 57 258 C57.79277344 257.56429688 58.58554688 257.12859375 59.40234375 256.6796875 C73.08501852 248.34714347 78.96136141 233.82650522 84.50390625 219.4296875 C85.67271268 213.70529695 83.15590339 208.39725972 81.02832031 203.16552734 C80.72409149 202.40364105 80.41986267 201.64175476 80.10641479 200.85678101 C79.10273976 198.34748295 78.09052413 195.84172701 77.078125 193.3359375 C76.3735804 191.57984286 75.66954803 189.82354263 74.96600342 188.06704712 C73.11232194 183.44335714 71.2512722 178.82266684 69.38879395 174.20251465 C67.88094655 170.45867616 66.37815915 166.71281751 64.87569046 162.96681786 C57.27049323 143.90933812 57.27049323 143.90933812 49.46923828 124.93188477 C46.56678751 118.00230962 43.78728693 111.02436433 41.00355911 104.04648018 C40.00855819 101.55244521 39.01239021 99.05887896 38.01596069 96.56541443 C35.53355744 90.35280528 33.05297266 84.13947049 30.57250977 77.92608643 C28.49136915 72.71313344 26.40956804 67.5004452 24.32668304 62.28818893 C23.63603432 60.55974914 22.94556844 58.83123627 22.25528717 57.10264969 C18.4054135 47.46356857 14.53414141 37.83380889 10.61621094 28.22216797 C10.26385817 27.35697383 9.91150539 26.49177969 9.54847527 25.60036755 C7.86624776 21.47069412 6.18027143 17.34262369 4.48770142 13.21717834 C3.89060519 11.75412878 3.29362375 10.29103236 2.69677734 8.82788086 C2.42149578 8.16093893 2.14621422 7.493997 1.86259079 6.80684471 C0 2.22687477 0 2.22687477 0 0 Z " fill="#000000" transform="translate(1481,902)"/>
<path d="M0 0 C3.33144044 1.66572022 4.90274227 2.65132438 7.41543293 5.15537071 C8.40539673 6.13473612 8.40539673 6.13473612 9.4153598 7.13388669 C10.13199788 7.85293986 10.84863597 8.57199303 11.58699036 9.31283569 C12.35473791 10.07534657 13.12248547 10.83785745 13.9134981 11.62347472 C16.49246397 14.18740286 19.06419552 16.75846615 21.63598633 19.32958984 C23.48014636 21.16613119 25.32470975 23.00226759 27.16964722 24.83802795 C32.1849632 29.83050297 37.19281203 34.83042392 42.1992476 39.83180189 C45.32378892 42.95308677 48.44995992 46.07273581 51.57648277 49.19203568 C60.22950663 57.82549896 68.88095174 66.46053529 77.52565479 75.10233116 C78.35523637 75.93163138 78.35523637 75.93163138 79.20157717 76.77768514 C80.32276452 77.89850624 81.44395059 79.01932862 82.5651354 80.14015226 C83.39998932 80.97473197 83.39998932 80.97473197 84.25170898 81.82617188 C85.08757688 82.66176895 85.08757688 82.66176895 85.940331 83.51424678 C94.98113052 92.55150044 104.03362293 101.5769424 113.09130613 110.59727113 C122.38613198 119.85406969 131.67162385 129.12014317 140.94760722 138.39582407 C146.15784559 143.6054768 151.37200074 148.81107083 156.59635353 154.00657272 C161.50545215 158.88868564 166.40165513 163.78340788 171.28921127 168.68708611 C173.08970679 170.48940736 174.89452406 172.28742255 176.70383644 174.08089256 C179.16352522 176.52034356 181.60749088 178.97450928 184.04792786 181.43319702 C184.77571955 182.14778875 185.50351124 182.86238047 186.25335723 183.59862649 C187.22376292 184.58581515 187.22376292 184.58581515 188.21377277 185.59294701 C188.78004582 186.15840559 189.34631886 186.72386418 189.92975169 187.30645788 C191 189 191 189 190.8653338 190.99867475 C189.86167112 193.31992404 188.7305234 194.64219221 186.9408865 196.42825699 C185.95558237 197.42252083 185.95558237 197.42252083 184.95037311 198.43687081 C184.22178768 199.15671773 183.49320224 199.87656464 182.74253845 200.6182251 C181.97397618 201.38935064 181.20541391 202.16047618 180.41356188 202.95496917 C177.82568075 205.54780806 175.22719188 208.12975047 172.62866211 210.71191406 C170.77567728 212.56405306 168.92335204 214.41685216 167.07164001 216.27026367 C163.07846274 220.26501491 159.07982419 224.25423143 155.07743645 228.23975372 C149.29065104 234.00217033 143.51215566 239.77284141 137.73565776 245.54556844 C128.36372748 254.91093091 118.98511562 264.26957265 109.60229492 273.62402344 C100.48713016 282.71165616 91.37511785 291.8024307 82.26733398 300.89746094 C81.42539532 301.73821735 81.42539532 301.73821735 80.56644779 302.59595874 C77.75066147 305.40782998 74.93493709 308.21976322 72.1192435 311.03172731 C48.7557568 334.36410784 25.38142479 357.68559508 2 381 C-1.92023775 379.08739303 -4.76607194 376.9399346 -8 374 C-8 373.34 -8 372.68 -8 372 C-8.556875 371.773125 -9.11375 371.54625 -9.6875 371.3125 C-12.61149335 369.6529362 -14.67149956 367.38304803 -17 365 C-18.19656443 363.80073262 -19.39457782 362.60290984 -20.59375 361.40625 C-23.19791667 358.80208333 -25.80208333 356.19791667 -28.40625 353.59375 C-29.02153564 352.97927002 -29.63682129 352.36479004 -30.27075195 351.73168945 C-31.35072614 350.65019052 -32.42787812 349.56585719 -33.50073242 348.47729492 C-35.36780048 346.58611789 -37.16039522 344.88295484 -39.3125 343.3125 C-39.869375 342.879375 -40.42625 342.44625 -41 342 C-41 341.34 -41 340.68 -41 340 C-41.66 339.67 -42.32 339.34 -43 339 C5.84 290.16 54.68 241.32 105 191 C100.49444881 185.67055336 100.49444881 185.67055336 95.74609375 180.6484375 C95.20146484 180.10703125 94.65683594 179.565625 94.09570312 179.0078125 C93.54849609 178.46898437 93.00128906 177.93015625 92.4375 177.375 C91.88642578 176.8284375 91.33535156 176.281875 90.76757812 175.71875 C89.68634303 174.64649313 88.60417769 173.57517332 87.52099609 172.50488281 C85.33844566 170.3454541 83.16918516 168.17284314 81 166 C80.3915625 165.3915625 79.783125 164.783125 79.15625 164.15625 C69 154 69 154 67.20703125 152.171875 C66.26923828 151.22054687 66.26923828 151.22054687 65.3125 150.25 C64.73113281 149.65703125 64.14976562 149.0640625 63.55078125 148.453125 C62.04486026 146.90358196 62.04486026 146.90358196 60 146 C60 145.34 60 144.68 60 144 C59.34 144 58.68 144 58 144 C56.44921875 142.390625 56.44921875 142.390625 54.6875 140.25 C52.69441586 137.89939355 50.91352052 135.93081642 48.5 134 C45.59625474 131.67700379 43.38352453 129.05323637 40.97265625 126.234375 C35.1693658 119.27562841 35.1693658 119.27562841 28 114 C28 113.34 28 112.68 28 112 C27.2575 111.79375 26.515 111.5875 25.75 111.375 C22.20503041 109.60251521 21.05201604 107.32568116 19 104 C18.01 103.505 18.01 103.505 17 103 C17 102.34 17 101.68 17 101 C16.14148438 100.62875 16.14148438 100.62875 15.265625 100.25 C12.64989389 98.80683801 10.85226544 97.11783778 8.75 95 C7.69039062 93.948125 7.69039062 93.948125 6.609375 92.875 C5 91 5 91 5 89 C4.4225 88.731875 3.845 88.46375 3.25 88.1875 C0.94449957 86.97070811 -1.02056192 85.69666121 -3 84 C-3 83.34 -3 82.68 -3 82 C-3.66 82 -4.32 82 -5 82 C-6.48046875 80.4609375 -6.48046875 80.4609375 -8.1875 78.375 C-11.0443456 75.00035114 -14.01976381 72.18109068 -17.4296875 69.3828125 C-19.58434117 67.48543091 -21.25106263 65.26714104 -23 63 C-23.66 62.67 -24.32 62.34 -25 62 C-25 61.34 -25 60.68 -25 60 C-25.5775 59.773125 -26.155 59.54625 -26.75 59.3125 C-29.58434736 57.6591307 -30.96762189 55.57036056 -33 53 C-33.99 52.175 -34.98 51.35 -36 50.5 C-39 48 -39 48 -43 43 C-28.81 28.81 -14.62 14.62 0 0 Z " fill="#EF443B" transform="translate(704,786)"/>
<path d="M0 0 C13.9834812 13.1286916 21.21896539 30.78095184 21.93554783 49.98514462 C21.93462604 51.12908971 21.93370424 52.2730348 21.93275452 53.4516449 C21.93403615 54.41616761 21.93403615 54.41616761 21.93534368 55.40017563 C21.9369783 57.53430971 21.9315105 59.66836351 21.92602539 61.80249023 C21.92574306 63.340449 21.92590216 64.87840789 21.9264679 66.41636658 C21.92675406 70.57698829 21.92088648 74.73758099 21.91389394 78.89819598 C21.90763038 83.25171431 21.90705423 87.60523335 21.90586853 91.95875549 C21.90276406 100.19628276 21.8945626 108.43379671 21.88451904 116.67131811 C21.87333043 126.05219493 21.86784053 135.4330724 21.86282361 144.81395423 C21.85237924 164.10514523 21.83404476 183.39631798 21.8125 202.6875 C2.3425 202.6875 -17.1275 202.6875 -37.1875 202.6875 C-37.22488281 193.11621094 -37.26226563 183.54492188 -37.30078125 173.68359375 C-37.33107724 167.59959521 -37.36211602 161.51561527 -37.39648438 155.43164062 C-37.45083068 145.78688292 -37.50224928 136.1421768 -37.53393555 126.49731445 C-37.55703348 119.4708864 -37.59056104 112.44459543 -37.63620156 105.41827637 C-37.6599762 101.70379763 -37.67880743 97.98945331 -37.68511391 94.27490044 C-37.69238039 90.11072635 -37.72295023 85.94701524 -37.75512695 81.78295898 C-37.75369186 80.57453842 -37.75225677 79.36611786 -37.7507782 78.12107849 C-37.89438612 64.87454512 -39.36542994 48.55558224 -49.1796875 38.68359375 C-57.9225799 31.83774404 -67.36710843 30.99355565 -78.1875 31.6875 C-86.02442958 32.76530617 -92.157435 34.65900888 -98.48046875 39.48046875 C-100.1875 40.6875 -100.1875 40.6875 -102.1875 40.6875 C-102.55875 41.491875 -102.55875 41.491875 -102.9375 42.3125 C-104.1875 44.6875 -104.1875 44.6875 -106.1015625 47.390625 C-115.71918685 62.59151443 -116.29508636 82.97078406 -116.39282227 100.40112305 C-116.40272186 101.51463638 -116.41262146 102.62814972 -116.42282104 103.77540588 C-116.45413779 107.41665601 -116.4790742 111.05791913 -116.50390625 114.69921875 C-116.5245016 117.23940855 -116.54549871 119.77959513 -116.56687927 122.31977844 C-116.61623174 128.29760651 -116.66156485 134.27545169 -116.70490164 140.25332528 C-116.76812425 148.9341808 -116.83958906 157.61496929 -116.91002655 166.29576874 C-117.00770028 178.42631289 -117.09678583 190.55689281 -117.1875 202.6875 C-136.6575 202.6875 -156.1275 202.6875 -176.1875 202.6875 C-176.1875 131.4075 -176.1875 60.1275 -176.1875 -13.3125 C-161.3375 -13.3125 -146.4875 -13.3125 -131.1875 -13.3125 C-127.80842272 -4.30162724 -127.80842272 -4.30162724 -126.80078125 -0.6640625 C-126.4769043 0.50189453 -126.4769043 0.50189453 -126.14648438 1.69140625 C-125.93314453 2.47386719 -125.71980469 3.25632812 -125.5 4.0625 C-125.27505859 4.86816406 -125.05011719 5.67382812 -124.81835938 6.50390625 C-123.1875 12.42258739 -123.1875 12.42258739 -123.1875 14.6875 C-120.74684436 12.32557519 -118.41669663 9.95459529 -116.203125 7.375 C-103.34713455 -7.57806691 -85.41415528 -15.68263792 -65.76953125 -17.22265625 C-41.94189119 -18.05175719 -18.76437414 -16.17618461 0 0 Z " fill="#000000" transform="translate(1436.1875,916.3125)"/>
<path d="M0 0 C0.82886719 0.66644531 1.65773438 1.33289063 2.51171875 2.01953125 C21.12849562 17.84236611 29.62450933 39.37156534 33 63 C33 78.18 33 93.36 33 109 C-12.87 109 -58.74 109 -106 109 C-100.73384454 134.49737609 -100.73384454 134.49737609 -83.765625 152.359375 C-63.02593956 164.66257822 -34.56529011 160.63822828 -12.21875 155.1328125 C-2.27259159 152.53242035 7.29107861 149.04777254 16.70703125 144.91796875 C19 144 19 144 21 144 C21 159.18 21 174.36 21 190 C1.17450182 199.91274909 -19.03133639 205.08465391 -41.25 205.203125 C-42.10698486 205.20882507 -42.96396973 205.21452515 -43.84692383 205.22039795 C-45.65200594 205.2297832 -47.45710469 205.23635591 -49.26220703 205.24023438 C-51.96549 205.2498769 -54.66799046 205.28093667 -57.37109375 205.3125 C-71.68096175 205.40054535 -85.52460184 204.07597279 -99.125 199.3125 C-99.86234375 199.05903809 -100.5996875 198.80557617 -101.359375 198.54443359 C-113.1155446 194.33534109 -123.71448767 188.41304808 -133 180 C-133.83015625 179.26265625 -134.6603125 178.5253125 -135.515625 177.765625 C-155.22854539 159.26208623 -164.38592858 131.76682895 -165.2375946 105.22286987 C-165.63018294 89.36965706 -165.55665012 73.52883851 -162 58 C-161.83371094 57.26974609 -161.66742187 56.53949219 -161.49609375 55.78710938 C-155.83935062 32.09164094 -142.35018677 9.74474181 -121.953125 -4.0625 C-109.49415313 -11.64122943 -95.52539053 -16.46479612 -81 -18 C-79.48019531 -18.18175781 -79.48019531 -18.18175781 -77.9296875 -18.3671875 C-51.01753847 -20.97569367 -21.58911628 -17.54345565 0 0 Z M-92.1875 36.0625 C-99.7779188 45.0248609 -103 56.44123989 -103 68 C-76.27 68 -49.54 68 -22 68 C-23.27196992 52.73636093 -25.65383057 42.74314243 -36.8125 32.25 C-52.95099237 18.7085064 -77.90513487 21.29960669 -92.1875 36.0625 Z " fill="#000000" transform="translate(2171,917)"/>
<path d="M0 0 C0.71406006 0.27682617 1.42812012 0.55365234 2.16381836 0.83886719 C6.89954647 2.83946224 6.89954647 2.83946224 7.90342712 5.22406006 C8.16918052 7.80388661 7.70610513 9.12953122 6.67797852 11.50097656 C6.3375502 12.30150452 5.99712189 13.10203247 5.64637756 13.92681885 C5.26936203 14.78112488 4.8923465 15.63543091 4.50390625 16.515625 C4.12515854 17.39780701 3.74641083 18.27998901 3.35618591 19.18890381 C2.14394351 22.00567596 0.91597487 24.8152747 -0.3125 27.625 C-1.13711259 29.53340302 -1.96069324 31.44225229 -2.78320312 33.3515625 C-4.80186383 38.03130415 -6.83465532 42.70467409 -8.875 47.375 C-13.10081544 46.79193999 -16.74103778 45.79399917 -20.69140625 44.1953125 C-21.78646484 43.76089844 -22.88152344 43.32648437 -24.00976562 42.87890625 C-26.26868339 41.97019061 -28.52652532 41.05879535 -30.78320312 40.14453125 C-47.27157412 33.61848599 -67.37603188 28.71077705 -84.875 34.375 C-88.45116425 36.12219043 -90.63661994 38.01742991 -92.875 41.375 C-93.60208055 46.67230116 -92.63155682 50.16477146 -89.66015625 54.46875 C-86.099293 58.27115978 -81.53890235 60.20119595 -76.875 62.375 C-75.83988281 62.88289062 -74.80476563 63.39078125 -73.73828125 63.9140625 C-65.59073195 67.83454803 -57.27703304 71.32269683 -48.9375 74.8125 C-2.60391284 94.28517389 -2.60391284 94.28517389 6.125 114.375 C13.27471181 134.29205432 12.9020169 156.00983572 4.125 175.375 C-4.85482838 191.18825875 -19.61436355 201.22257121 -36.875 206.375 C-49.08749273 209.47392657 -61.18669624 211.50556203 -73.80078125 211.578125 C-75.03263908 211.58871445 -75.03263908 211.58871445 -76.28938293 211.59951782 C-110.62254811 211.82779065 -110.62254811 211.82779065 -124.875 208.375 C-125.81021484 208.14973633 -126.74542969 207.92447266 -127.70898438 207.69238281 C-136.48344028 205.52567566 -144.76795167 203.42852417 -152.875 199.375 C-152.875 183.205 -152.875 167.035 -152.875 150.375 C-148.54975705 151.24004859 -145.12906479 152.38030327 -141.0625 154 C-116.06368136 163.59900207 -82.12790506 174.90956301 -55.8515625 163.49609375 C-52.03401311 161.27074179 -50.29397167 158.47425149 -48.875 154.375 C-48.31155081 149.30395725 -48.43276421 145.57365739 -51.31396484 141.14257812 C-58.30027256 133.23190126 -68.55879266 128.74747852 -77.9375 124.375 C-79.22775133 123.76299705 -80.51762396 123.15019512 -81.80712891 122.53662109 C-88.74057345 119.25006487 -95.7187374 116.07194903 -102.75 113 C-122.20095683 104.47988269 -141.43349261 94.03306429 -149.875 73.375 C-152.65263887 65.39762117 -153.39100308 57.91219205 -153.3125 49.5 C-153.30420166 48.35394287 -153.29590332 47.20788574 -153.28735352 46.02709961 C-152.98688628 31.00694568 -148.57238248 19.38096961 -138.25 8.1875 C-124.69612997 -4.53228572 -107.73908561 -9.09071008 -89.875 -11.625 C-88.9675 -11.75777344 -88.06 -11.89054688 -87.125 -12.02734375 C-57.89470389 -15.44691365 -27.27054921 -10.78552412 0 0 Z " fill="#000000" transform="translate(2392.875,911.625)"/>
</svg>
