<?xml version="1.0" encoding="UTF-8"?>
<svg version="1.1" xmlns="http://www.w3.org/2000/svg" width="600" height="80">
<path d="M0 0 C198 0 396 0 600 0 C600 26.4 600 52.8 600 80 C402 80 204 80 0 80 C0 53.6 0 27.2 0 0 Z " fill="#FBFBFC" transform="translate(0,0)"/>
<path d="M0 0 C8.00273465 5.51870539 13.65822385 13.03036991 15.5546875 22.76171875 C16.50949388 31.54280694 14.6992318 39.1545957 9.70703125 46.46875 C3.46490415 54.02500913 -3.5416668 58.89892368 -13.34765625 60.33203125 C-23.60989358 61.01962452 -31.96453891 58.49429463 -39.8203125 51.7109375 C-46.76588344 44.52278228 -49.60383209 37.32477968 -50.0703125 27.38671875 C-49.7606779 17.48839987 -46.29147229 10.08128413 -39.1328125 3.26171875 C-27.38377706 -6.07526306 -13.16577645 -7.65327655 0 0 Z " fill="#FAFAFB" transform="translate(57.4453125,12.23828125)"/>
<path d="M0 0 C11.75625 -0.0825 23.5125 -0.165 35.625 -0.25 C41.18142334 -0.30462402 41.18142334 -0.30462402 46.85009766 -0.36035156 C51.39331055 -0.37841797 51.39331055 -0.37841797 53.52401733 -0.3817749 C55.00380267 -0.38789451 56.48356876 -0.40191593 57.96322632 -0.42230225 C60.21232442 -0.45172544 62.46020999 -0.45561956 64.70947266 -0.45410156 C66.60809555 -0.46742523 66.60809555 -0.46742523 68.54507446 -0.48101807 C72.68694043 0.09564049 74.80254377 1.33884669 78 4 C80.3744215 7.25148483 80.25830136 10.29849691 80.2746582 14.24975586 C80.28419022 15.5146434 80.29372223 16.77953094 80.30354309 18.08274841 C80.30328165 19.46011381 80.30234455 20.83747922 80.30078125 22.21484375 C80.30467005 23.63204575 80.30900511 25.04924659 80.31376648 26.46644592 C80.32122141 29.43461894 80.32094274 32.402673 80.31567383 35.37084961 C80.30988009 39.16838936 80.32681086 42.96544124 80.3500185 46.76290035 C80.36477373 49.68920218 80.36562514 52.61538699 80.36250877 55.54171944 C80.36302109 56.94151335 80.36824203 58.34131397 80.37832069 59.7410717 C80.390701 61.70095959 80.38194178 63.66094626 80.37231445 65.62084961 C80.37294388 66.73463486 80.3735733 67.8484201 80.3742218 68.99595642 C79.81165161 73.51195568 78.2986682 75.96102827 74.76106262 78.79121399 C71.27516275 80.31733185 68.62703065 80.36056233 64.82299805 80.34057617 C63.75157798 80.34111858 63.75157798 80.34111858 62.65851307 80.34167194 C60.35929089 80.33944278 58.06080944 80.31664438 55.76171875 80.29296875 C54.33712108 80.28855478 52.91251855 80.28549616 51.48791504 80.28381348 C46.22103556 80.26812099 40.95426041 80.2262371 35.6875 80.1875 C23.910625 80.125625 12.13375 80.06375 0 80 C0 53.6 0 27.2 0 0 Z M13.625 20.66796875 C7.7347976 29.12097556 6.94491947 36.72395527 8 47 C9.94000293 55.91188848 15.31727915 62.62035772 22.625 67.89453125 C30.8226219 72.65048852 38.8205787 73.36636741 48 72 C57.13234747 69.04572188 64.28655998 63.66943706 69.3125 55.5 C73.49267376 46.83000999 74.41394763 38.71837865 71.5625 29.5 C67.71155876 20.01353498 60.68365513 13.15990993 51.37109375 9.0078125 C36.90399257 4.6827695 23.09296219 8.77384125 13.625 20.66796875 Z " fill="#050A51" transform="translate(0,0)"/>
<path d="M0 0 C4.29 0 8.58 0 13 0 C13.66 1.98 14.32 3.96 15 6 C15.94875 5.195625 16.8975 4.39125 17.875 3.5625 C22.11581662 -0.03297496 25.00527928 -0.27839674 30.515625 -0.22265625 C33.69761552 0.06252215 35.59332937 0.90386752 38 3 C38.495 4.485 38.495 4.485 39 6 C39.76570313 5.3503125 39.76570313 5.3503125 40.546875 4.6875 C46.12598046 0.41414262 50.21381956 -0.64258295 57.203125 -0.50390625 C61.89219652 0.3409125 64.37966637 2.19011998 67.25 5.9375 C70.0624117 10.85922048 70.13881337 15.01794974 70.09765625 20.609375 C70.0962413 21.33618469 70.09482635 22.06299438 70.09336853 22.81182861 C70.08778792 25.12459494 70.07523904 27.43726312 70.0625 29.75 C70.05748249 31.32161318 70.05292002 32.89322789 70.04882812 34.46484375 C70.03782485 38.30993343 70.02057361 42.1549501 70 46 C65.71 46 61.42 46 57 46 C56.98541748 45.07662842 56.97083496 44.15325684 56.95581055 43.2019043 C56.89473692 39.77422796 56.8205839 36.34735338 56.73754883 32.92016602 C56.70430577 31.43720146 56.67627177 29.95411056 56.65356445 28.47094727 C56.62000532 26.33815707 56.56769362 24.20652388 56.51171875 22.07421875 C56.48553467 20.79119873 56.45935059 19.50817871 56.43237305 18.1862793 C56.25838767 15.04516192 56.25838767 15.04516192 54.62426758 13.07348633 C52.3274492 11.55550791 50.6993393 11.73006607 48 12 C47.01 12.33 46.02 12.66 45 13 C43.85705686 16.42882941 43.79035528 19.24082838 43.68359375 22.85546875 C43.66281265 23.51710526 43.64203156 24.17874176 43.62062073 24.86042786 C43.55535273 26.96934852 43.49634656 29.07839135 43.4375 31.1875 C43.39429311 32.61915315 43.35067812 34.05079404 43.30664062 35.48242188 C43.19892815 38.98815796 43.09968692 42.49398975 43 46 C38.71 46 34.42 46 30 46 C29.98541748 45.07662842 29.97083496 44.15325684 29.95581055 43.2019043 C29.89473692 39.77422796 29.8205839 36.34735338 29.73754883 32.92016602 C29.70430577 31.43720146 29.67627177 29.95411056 29.65356445 28.47094727 C29.62000532 26.33815707 29.56769362 24.20652388 29.51171875 22.07421875 C29.48553467 20.79119873 29.45935059 19.50817871 29.43237305 18.1862793 C29.24611015 15.05701524 29.24611015 15.05701524 27.69067383 13.05004883 C25.82680422 11.67491074 25.82680422 11.67491074 22.4375 12.125 C18.74557606 12.65633933 18.74557606 12.65633933 17 16 C16.63000663 19.19990054 16.63000663 19.19990054 16.5859375 22.85546875 C16.56657135 23.51710526 16.5472052 24.17874176 16.5272522 24.86042786 C16.46757313 26.96932164 16.42111913 29.07827037 16.375 31.1875 C16.33680934 32.61916415 16.29775697 34.05080559 16.2578125 35.48242188 C16.16026148 38.98816165 16.08060538 42.49366577 16 46 C11.71 46 7.42 46 3 46 C2.98018066 44.85523193 2.96036133 43.71046387 2.93994141 42.53100586 C2.86354772 38.26109792 2.77488363 33.99151583 2.68261719 29.72192383 C2.64446642 27.87823954 2.6095899 26.03448434 2.578125 24.19067383 C2.53217105 21.53180699 2.4742284 18.87342247 2.4140625 16.21484375 C2.40251129 15.39789536 2.39096008 14.58094696 2.37905884 13.73924255 C2.25371288 8.81692024 1.55781093 4.67616578 0 0 Z " fill="#050A51" transform="translate(245,25)"/>
<path d="M0 0 C0.33 -0.99 0.66 -1.98 1 -3 C4.63 -3 8.26 -3 12 -3 C12.029729 -1.38158203 12.029729 -1.38158203 12.06005859 0.26953125 C12.1365856 4.30279433 12.22522737 8.3357186 12.31738281 12.36865234 C12.35547915 14.10849276 12.39036447 15.84840676 12.421875 17.58837891 C12.46794901 20.10085205 12.5258695 22.612827 12.5859375 25.125 C12.59748871 25.89303955 12.60903992 26.6610791 12.62094116 27.45239258 C12.7584048 32.57303517 13.60547741 37.06779378 15 42 C10.71 42 6.42 42 2 42 C2 40.68 2 39.36 2 38 C1.09121094 38.54140625 1.09121094 38.54140625 0.1640625 39.09375 C-6.90576652 43.00934761 -12.22495005 44.08608534 -20.16015625 42.59375 C-25.96856234 40.89263685 -29.75397515 37.00940592 -33 32 C-35.95642833 24.80045859 -36.26154235 16.19098912 -34.0625 8.6875 C-31.84772382 3.68295767 -27.41477145 0.06815139 -23 -3 C-15.15436356 -5.87035479 -6.6368055 -4.82676764 0 0 Z " fill="#060A51" transform="translate(225,29)"/>
<path d="M0 0 C4.95 0 9.9 0 15 0 C15.49371094 1.99804688 15.98742187 3.99609375 16.49609375 6.0546875 C16.97582298 7.98750961 17.45556877 9.92032766 17.93579102 11.85302734 C18.26932295 13.19721785 18.60201018 14.54161824 18.93383789 15.88623047 C19.41070441 17.8179319 19.89085289 19.7488222 20.37109375 21.6796875 C20.65911865 22.84226074 20.94714355 24.00483398 21.24389648 25.20263672 C21.88125691 27.92779725 21.88125691 27.92779725 23 30 C24.21810487 26.69797379 25.39358277 23.38222493 26.5625 20.0625 C27.07586914 18.67321289 27.07586914 18.67321289 27.59960938 17.25585938 C29.78502767 10.96450367 30.23125323 6.55995571 29 0 C33.62 0 38.24 0 43 0 C44.15182992 3.85246508 45.29663758 7.70678688 46.4375 11.5625 C46.76298828 12.64853516 47.08847656 13.73457031 47.42382812 14.85351562 C49.01053936 20.23524756 50.43081426 25.41235971 51 31 C51.66 31 52.32 31 53 31 C53.0825 29.989375 53.165 28.97875 53.25 27.9375 C53.93647883 22.35612868 55.52177001 16.99704782 57.01171875 11.58984375 C58.07159309 7.73994446 59.05024772 3.87815514 60 0 C64.62 0 69.24 0 74 0 C69.82625243 15.17726388 65.08171159 30.10310434 60 45 C54.72 45 49.44 45 44 45 C41.69 38.4 39.38 31.8 37 25 C34.69 31.6 32.38 38.2 30 45 C24.72 45 19.44 45 14 45 C8.91828841 30.10310434 4.17374757 15.17726388 0 0 Z " fill="#070B52" transform="translate(443,26)"/>
<path d="M0 0 C4.95 0 9.9 0 15 0 C20.12956516 14.86408087 24.6004494 29.90574353 29 45 C32.96614442 35.86174998 35.80745642 26.37636379 38.75 16.875 C39.26135287 15.23426092 39.77306878 13.59363495 40.28515625 11.953125 C41.52762565 7.9700412 42.7651763 3.9854604 44 0 C48.62 0 53.24 0 58 0 C56.54466064 7.3096533 54.35986788 14.18841971 51.90234375 21.21875 C51.50801651 22.35783813 51.11368927 23.49692627 50.70741272 24.67053223 C49.87852865 27.06145439 49.04722469 29.45153886 48.21362305 31.84082031 C46.93255071 35.51419168 45.66005062 39.19045128 44.38867188 42.8671875 C43.58123009 45.1928823 42.7733047 47.51840928 41.96484375 49.84375 C41.58255112 50.94779175 41.20025848 52.0518335 40.80638123 53.18933105 C40.4525386 54.2012854 40.09869598 55.21323975 39.73413086 56.25585938 C39.42261581 57.15026733 39.11110077 58.04467529 38.79014587 58.96618652 C38 61 38 61 37 62 C34.30345146 62.07319621 31.63308542 62.09242537 28.9375 62.0625 C27.79958008 62.05573242 27.79958008 62.05573242 26.63867188 62.04882812 C24.75908129 62.0370068 22.87953101 62.01907078 21 62 C18.96981253 56.22537344 16.94366499 50.44934933 14.92089844 44.67211914 C14.23542437 42.71602193 13.54893746 40.76027928 12.86132812 38.80493164 C8.33789485 25.9389383 4.01870668 13.03284955 0 0 Z " fill="#070B52" transform="translate(314,9)"/>
<path d="M0 0 C6.18026194 2.83606666 9.46603564 7.28363379 12.48046875 13.3125 C12.48046875 17.6025 12.48046875 21.8925 12.48046875 26.3125 C2.25046875 26.3125 -7.97953125 26.3125 -18.51953125 26.3125 C-16.3516638 32.85376074 -16.3516638 32.85376074 -13.76953125 34.75 C-10.49369907 35.56895805 -7.89008299 35.66117777 -4.51953125 35.3125 C-2.50145575 34.00668644 -0.49899717 32.67613208 1.48046875 31.3125 C5.60645494 31.18356293 8.56467146 34.72804331 11.48046875 37.3125 C8.17713491 42.48293558 4.2964965 44.774173 -1.51953125 46.3125 C-9.40182615 47.20432537 -17.0651071 47.41284915 -23.51953125 42.3125 C-29.58070423 36.83386538 -32.53585066 30.57097105 -33.01953125 22.4375 C-32.78674488 15.85875464 -30.23293329 10.24394328 -25.76953125 5.421875 C-18.25213896 -1.25305091 -9.88000643 -2.69593974 0 0 Z " fill="#080C52" transform="translate(171.51953125,25.6875)"/>
<path d="M0 0 C5.50809574 3.2885888 8.11401618 7.41004046 10.5 13.375 C10.5 17.335 10.5 21.295 10.5 25.375 C-0.06 25.375 -10.62 25.375 -21.5 25.375 C-18.36150333 31.87478352 -18.36150333 31.87478352 -15.6875 33.8125 C-12.43593133 34.64861766 -9.84950427 34.72150044 -6.5 34.375 C-4.4819245 33.06918644 -2.47946592 31.73863208 -0.5 30.375 C3.62598619 30.24606293 6.58420271 33.79054331 9.5 36.375 C6.20349356 41.53474921 2.29456636 43.81298646 -3.5 45.375 C-10.57641185 46.15357832 -18.34375314 46.42053365 -24.5 42.375 C-30.32474695 37.25628299 -33.72690318 31.65638051 -34.84765625 24 C-35.26296693 17.18464519 -33.34827684 11.96898639 -29.5 6.375 C-21.98102669 -1.9147109 -10.49410584 -4.79730553 0 0 Z " fill="#070B52" transform="translate(551.5,26.625)"/>
<path d="M0 0 C5.09620539 3.01237564 8.70841667 7.93775001 10.5625 13.5 C10.5625 17.46 10.5625 21.42 10.5625 25.5 C0.0025 25.5 -10.5575 25.5 -21.4375 25.5 C-18.29900333 31.99978352 -18.29900333 31.99978352 -15.625 33.9375 C-12.37343133 34.77361766 -9.78700427 34.84650044 -6.4375 34.5 C-4.4194245 33.19418644 -2.41696592 31.86363208 -0.4375 30.5 C3.68848619 30.37106293 6.64670271 33.91554331 9.5625 36.5 C6.25916616 41.67043558 2.37852775 43.961673 -3.4375 45.5 C-11.30096242 46.3896946 -19.00616452 46.6151552 -25.4375 41.5 C-30.93400435 36.29927167 -33.63726261 31.49801943 -33.86914062 23.77685547 C-33.90202533 12.05071693 -33.90202533 12.05071693 -30.0703125 7.11328125 C-21.86546627 -0.99342088 -11.29138747 -4.96733519 0 0 Z " fill="#070B52" transform="translate(431.4375,26.5)"/>
<path d="M0 0 C18.48 0 36.96 0 56 0 C56 3.63 56 7.26 56 11 C49.07 11 42.14 11 35 11 C35 27.83 35 44.66 35 62 C30.38 62 25.76 62 21 62 C21 45.5 21 29 21 12 C14.07 12 7.14 12 0 12 C0 8.04 0 4.08 0 0 Z " fill="#0B0F54" transform="translate(93,9)"/>
<path d="M0 0 C0 4.29 0 8.58 0 13 C-2.0728125 12.9071875 -2.0728125 12.9071875 -4.1875 12.8125 C-8.31132316 12.82544764 -10.76866194 13.24385872 -14 16 C-16.66693387 19.73338203 -17.39476025 22.39564987 -17.51171875 26.95703125 C-17.54716797 28.06884766 -17.58261719 29.18066406 -17.61914062 30.32617188 C-17.65297852 32.0519043 -17.65297852 32.0519043 -17.6875 33.8125 C-17.72166016 34.98232422 -17.75582031 36.15214844 -17.79101562 37.35742188 C-17.87331637 40.23794788 -17.93833933 43.11895828 -18 46 C-22.29 46 -26.58 46 -31 46 C-31.03758423 44.27499268 -31.03758423 44.27499268 -31.07592773 42.51513672 C-31.17038214 38.23231627 -31.27050876 33.94964368 -31.37231445 29.66699219 C-31.41551986 27.81644154 -31.45720458 25.96585471 -31.49731445 24.11523438 C-31.5553672 21.44910806 -31.61895924 18.7831614 -31.68359375 16.1171875 C-31.70030624 15.29507782 -31.71701874 14.47296814 -31.73423767 13.62594604 C-31.84416713 9.32495949 -32.16288423 5.23622286 -33 1 C-29.04 1 -25.08 1 -21 1 C-20.34 2.65 -19.68 4.3 -19 6 C-18.55011719 5.566875 -18.10023438 5.13375 -17.63671875 4.6875 C-11.72683194 -0.42887495 -7.71064649 -0.57829849 0 0 Z " fill="#060A51" transform="translate(600,25)"/>
<path d="M0 0 C3.96 0 7.92 0 12 0 C12 14.85 12 29.7 12 45 C8.04 45 4.08 45 0 45 C0 30.15 0 15.3 0 0 Z " fill="#03074F" transform="translate(379,26)"/>
<path d="M0 0 C2.60540782 1.28921216 5.20934373 2.58125596 7.8125 3.875 C8.55048828 4.23980469 9.28847656 4.60460938 10.04882812 4.98046875 C10.76103516 5.33496094 11.47324219 5.68945312 12.20703125 6.0546875 C12.8616333 6.37937012 13.51623535 6.70405273 14.19067383 7.03857422 C16 8 16 8 19 10 C17.82908158 13.51275526 17.33661933 13.65017234 14.18359375 15.26171875 C13.41982422 15.65810547 12.65605469 16.05449219 11.86914062 16.46289062 C11.06669922 16.86701172 10.26425781 17.27113281 9.4375 17.6875 C8.63119141 18.10322266 7.82488281 18.51894531 6.99414062 18.94726562 C5.0003913 19.97363362 3.00243503 20.99071198 1 22 C0.505 21.01 0.505 21.01 0 20 C0.66 18.35 1.32 16.7 2 15 C-3.61 15 -9.22 15 -15 15 C-14.34 17.31 -13.68 19.62 -13 22 C-17.49324849 20.34229667 -21.61186146 18.15017838 -25.8125 15.875 C-26.50537109 15.50246094 -27.19824219 15.12992188 -27.91210938 14.74609375 C-29.60934836 13.83309623 -31.30485138 12.91687284 -33 12 C-33 11.34 -33 10.68 -33 10 C-30.2118978 8.4933028 -27.41896042 6.99580196 -24.625 5.5 C-23.8309375 5.07074219 -23.036875 4.64148437 -22.21875 4.19921875 C-21.45820313 3.79316406 -20.69765625 3.38710938 -19.9140625 2.96875 C-18.8614624 2.40317383 -18.8614624 2.40317383 -17.78759766 1.82617188 C-16 1 -16 1 -14 1 C-14.33 2.65 -14.66 4.3 -15 6 C-9.39 6.33 -3.78 6.66 2 7 C1.34 4.69 0.68 2.38 0 0 Z " fill="#080B51" transform="translate(47,29)"/>
<path d="M0 0 C3.63178066 2.08951764 6.82948544 4.90319905 8 9 C8.39153093 15.16661219 7.85778888 19.0113831 4.5625 24.3125 C0.34070732 27.09270493 -4.12099553 26.98302905 -9 26 C-11.93469432 23.90287639 -13.39481613 21.21036773 -15 18 C-15.41849303 13.4529123 -15.53618367 9.32634907 -13.8125 5.0625 C-9.76633938 0.45824826 -6.10840841 -0.85732048 0 0 Z " fill="#F9F9FA" transform="translate(218,35)"/>
<path d="M0 0 C2.0625 1.625 2.0625 1.625 3 4 C2.93416738 7.75245951 2.81598805 10.06312483 0.3125 12.9375 C-2.7058606 14.32431433 -4.70970079 14.4112874 -8 14 C-10.375 13.0625 -10.375 13.0625 -12 11 C-12.56573112 7.9000244 -12.55335438 5.10109015 -12 2 C-9.0471838 -2.18315629 -4.45139893 -1.36748484 0 0 Z " fill="#090D52" transform="translate(390,8)"/>
<path d="M0 0 C2.5625 1.6875 2.5625 1.6875 4 4 C4 5.65 4 7.3 4 9 C-2.27 9 -8.54 9 -15 9 C-13 3 -13 3 -11.4375 1.125 C-7.66146016 -0.61778762 -4.08015158 -0.6737865 0 0 Z " fill="#F8F8FA" transform="translate(545,35)"/>
<path d="M0 0 C2.5625 1.6875 2.5625 1.6875 4 4 C4 5.65 4 7.3 4 9 C-1.94 9 -7.88 9 -14 9 C-13 3 -13 3 -11.5 1.125 C-7.68477161 -0.59185277 -4.10914952 -0.67857515 0 0 Z " fill="#FAFAFB" transform="translate(425,35)"/>
<path d="M0 0 C2.5625 1.6875 2.5625 1.6875 4 4 C4 5.65 4 7.3 4 9 C-1.94 9 -7.88 9 -14 9 C-13 3 -13 3 -11.5 1.125 C-7.68477161 -0.59185277 -4.10914952 -0.67857515 0 0 Z " fill="#FBFBFB" transform="translate(167,35)"/>
<path d="M0 0 C3.3 0 6.6 0 10 0 C8.02 0.99 8.02 0.99 6 2 C3.07404123 4.25675864 2.10902742 5.34840327 1.49206543 9.03564453 C1.48888306 10.22270996 1.48570068 11.40977539 1.48242188 12.6328125 C1.4754126 13.29021423 1.46840332 13.94761597 1.46118164 14.62493896 C1.44361569 16.79205917 1.45521765 18.95786716 1.46875 21.125 C1.46605464 22.63427989 1.46217185 24.14355808 1.45715332 25.65283203 C1.45126024 28.81364499 1.4598145 31.97400534 1.47851562 35.13476562 C1.50130581 39.18368557 1.4881816 43.23154498 1.46422577 47.28042603 C1.44976222 50.39632133 1.45437617 53.51196574 1.46473694 56.62786865 C1.46740272 58.1205864 1.46413962 59.61332704 1.45481873 61.10601807 C1.44464305 63.19368704 1.46016431 65.27964574 1.48242188 67.3671875 C1.48560425 68.55425293 1.48878662 69.74131836 1.49206543 70.96435547 C2.10902742 74.65159673 3.07404123 75.74324136 6 78 C7.32 78.66 8.64 79.32 10 80 C6.7 80 3.4 80 0 80 C0 53.6 0 27.2 0 0 Z " fill="#1F225F" transform="translate(0,0)"/>
<path d="M0 0 C0.66 1.32 1.32 2.64 2 4 C4.61034979 6.95839643 6.37411319 8.1870566 10 10 C6.7 10 3.4 10 0 10 C0 6.7 0 3.4 0 0 Z " fill="#E8E8ED" transform="translate(0,70)"/>
<path d="M0 0 C3.3 0 6.6 0 10 0 C8.02 0.99 8.02 0.99 6 2 C4.52744749 3.47581562 4.52744749 3.47581562 3.3125 5.125 C2.549375 6.07375 1.78625 7.0225 1 8 C0.67 8 0.34 8 0 8 C0 5.36 0 2.72 0 0 Z " fill="#EEEEF2" transform="translate(0,0)"/>
</svg>
