<svg width="128" height="28" viewBox="0 0 128 28" fill="none" xmlns="http://www.w3.org/2000/svg">
<path fill-rule="evenodd" clip-rule="evenodd" d="M15.5306 0.907721C15.5306 0.907721 14.2869 1.00534 14.162 1.86697C14.0024 2.96797 13.2104 8.4329 13.0512 9.5291C12.892 10.6253 13.9751 10.5823 13.8781 10.6103C13.7812 10.6383 22.5571 10.9632 22.5571 10.9632C22.5571 10.9632 21.3664 19.1765 21.217 20.2064C21.0677 21.2364 22.1473 21.4229 22.1473 21.4229L29.4071 22.235C30.6169 22.3703 30.7757 21.2757 30.7757 21.2757L33.7378 0.843294C33.7378 0.843294 33.731 -0.0777319 32.8756 0.00529396C32.0201 0.0883198 15.5306 0.907721 15.5306 0.907721Z" fill="#00D6E1"/>
<path fill-rule="evenodd" clip-rule="evenodd" d="M2.49543 6.66111C2.49543 6.66111 1.25158 6.75899 1.12673 7.62035C0.967134 8.72144 0.175049 14.1863 0.0159832 15.2826C-0.143083 16.3789 0.939856 16.3357 0.84289 16.3638C0.745924 16.3918 9.52201 16.7166 9.52201 16.7166C9.52201 16.7166 8.33105 24.93 8.18177 25.9599C8.03248 26.9898 9.112 27.1763 9.112 27.1763L16.3719 27.9884C17.5817 28.1237 17.7405 27.0292 17.7405 27.0292L20.7027 6.59672C20.7027 6.59672 20.696 5.67592 19.8404 5.75868C18.9848 5.84144 2.49543 6.66111 2.49543 6.66111Z" fill="#0175FF"/>
<path d="M19.8402 5.75893C20.6958 5.67617 20.7025 6.59682 20.7025 6.59682L20.0824 10.8683C17.5006 10.7702 13.8307 10.6292 13.8773 10.6105C13.9743 10.5825 12.8922 10.6254 13.0511 9.52943C13.1242 9.02605 13.3297 7.60098 13.5472 6.10072C16.7586 5.93526 19.5042 5.79142 19.8402 5.75893Z" fill="#005BEC"/>
<path d="M48.1446 23.2163C48.1446 23.5907 47.8411 23.8942 47.4667 23.8942H45.0546C44.6802 23.8942 44.3767 23.5907 44.3767 23.2163V7.64958H39.4651C39.0906 7.64958 38.7871 7.34606 38.7871 6.97164V4.80911C38.7871 4.43469 39.0906 4.13116 39.4651 4.13116H53.0313C53.4057 4.13116 53.7092 4.43469 53.7092 4.80911V6.97164C53.7092 7.34606 53.4057 7.64958 53.0313 7.64958H48.1446V23.2163Z" fill="#0070F9"/>
<path d="M58.7801 24.2435C57.3827 24.2435 56.16 23.9358 55.1119 23.3203C54.0805 22.7048 53.282 21.8314 52.7164 20.7002C52.1674 19.5523 51.8929 18.2048 51.8929 16.6577C51.8929 15.1273 52.1674 13.7964 52.7164 12.6652C53.282 11.5174 54.0805 10.6357 55.1119 10.0202C56.16 9.40463 57.3827 9.09688 58.7801 9.09688C60.1775 9.09688 61.3918 9.40463 62.4233 10.0202C63.4547 10.6357 64.2448 11.5174 64.7938 12.6652C65.3594 13.7964 65.6422 15.1273 65.6422 16.6577C65.6422 18.2048 65.3594 19.5523 64.7938 20.7002C64.2448 21.8314 63.4547 22.7048 62.4233 23.3203C61.3918 23.9358 60.1775 24.2435 58.7801 24.2435ZM58.7801 20.8C59.7449 20.8 60.5102 20.4257 61.0758 19.6771C61.6414 18.9285 61.9242 17.922 61.9242 16.6577C61.9242 15.3934 61.6414 14.3953 61.0758 13.6633C60.5102 12.9147 59.7449 12.5404 58.7801 12.5404C57.7986 12.5404 57.025 12.9147 56.4594 13.6633C55.8938 14.3953 55.611 15.3934 55.611 16.6577C55.611 17.922 55.8938 18.9285 56.4594 19.6771C57.025 20.4257 57.7986 20.8 58.7801 20.8Z" fill="#0070F9"/>
<path d="M68.7945 23.8942C68.4201 23.8942 68.1165 23.5907 68.1165 23.2163V4.80911C68.1165 4.43469 68.4201 4.13116 68.7945 4.13116H74.4661C76.5455 4.13116 78.3255 4.53042 79.8061 5.32893C81.3033 6.12743 82.4428 7.26697 83.2247 8.74753C84.0066 10.2281 84.3975 11.9831 84.3975 14.0127C84.3975 16.0256 83.9899 17.7806 83.1748 19.2778C82.3596 20.7584 81.1702 21.8979 79.6065 22.6964C78.0594 23.4949 76.2045 23.8942 74.0419 23.8942H68.7945ZM74.0668 20.3508C76.1296 20.3508 77.7183 19.7935 78.8329 18.679C79.9641 17.5644 80.5297 16.0089 80.5297 14.0127C80.5297 11.9998 79.9891 10.436 78.9078 9.32146C77.8265 8.20688 76.2794 7.64958 74.2664 7.64958H71.8845V20.3508H74.0668Z" fill="#0070F9"/>
<path d="M99.472 15.5847C99.472 16.2903 99.4127 16.9316 99.294 17.5086C99.2329 17.8051 98.9639 18.0052 98.6612 18.0052H89.8151C89.9648 19.02 90.3225 19.8102 90.8881 20.3758C91.4537 20.9248 92.2189 21.1992 93.1838 21.1992C93.7993 21.1992 94.3649 21.0246 94.8806 20.6752C95.245 20.4284 95.5637 20.1151 95.8367 19.7354C96.0327 19.4628 96.3909 19.3398 96.6947 19.4827L98.5534 20.3574C98.8683 20.5056 99.0073 20.8825 98.8324 21.1834C98.3199 22.0657 97.6347 22.7697 96.7771 23.2953C95.7623 23.9275 94.5562 24.2435 93.1588 24.2435C91.7116 24.2435 90.4473 23.9441 89.3659 23.3452C88.3013 22.7297 87.4778 21.8647 86.8956 20.7501C86.3133 19.6189 86.0222 18.2963 86.0222 16.7825C86.0222 15.2188 86.305 13.863 86.8706 12.7151C87.4362 11.5506 88.2347 10.6606 89.2661 10.0451C90.3142 9.41295 91.5452 9.09688 92.9592 9.09688C94.2568 9.09688 95.3963 9.36305 96.3778 9.89538C97.3593 10.4277 98.1162 11.1846 98.6486 12.1661C99.1976 13.1476 99.472 14.2872 99.472 15.5847ZM95.754 14.9859C95.754 14.1208 95.5045 13.4304 95.0054 12.9147C94.5063 12.399 93.8243 12.1412 92.9592 12.1412C92.1607 12.1412 91.5036 12.3907 90.9879 12.8898C90.4722 13.3722 90.1145 14.0709 89.9149 14.9859H95.754Z" fill="#0070F9"/>
<path d="M106.716 24.2435C105.236 24.2435 103.963 23.9108 102.898 23.2454C102.01 22.6905 101.336 21.9678 100.877 21.0773C100.721 20.7764 100.872 20.4174 101.181 20.2804L103.09 19.4356C103.411 19.2936 103.781 19.4439 103.968 19.7404C104.213 20.1277 104.514 20.4476 104.87 20.7002C105.402 21.0495 106.017 21.2242 106.716 21.2242C107.382 21.2242 107.889 21.1077 108.238 20.8748C108.588 20.6253 108.762 20.2926 108.762 19.8767C108.762 19.4775 108.563 19.1448 108.163 18.8786C107.764 18.6124 107.132 18.3878 106.267 18.2048C104.553 17.8056 103.231 17.24 102.299 16.508C101.368 15.7761 100.902 14.8195 100.902 13.6384C100.902 12.241 101.418 11.1347 102.449 10.3196C103.48 9.50445 104.853 9.09688 106.566 9.09688C107.914 9.09688 109.103 9.42127 110.135 10.0701C111.006 10.6093 111.687 11.3153 112.179 12.1879C112.348 12.4871 112.207 12.8568 111.897 13.003L110.027 13.8826C109.724 14.0256 109.365 13.9026 109.169 13.63C108.896 13.2503 108.578 12.937 108.213 12.6902C107.698 12.3242 107.157 12.1412 106.591 12.1412C105.976 12.1412 105.493 12.266 105.144 12.5155C104.811 12.765 104.645 13.0977 104.645 13.5136C104.645 13.9129 104.853 14.2456 105.269 14.5117C105.701 14.7779 106.442 15.0275 107.49 15.2604C110.817 16.009 112.48 17.4812 112.48 19.6771C112.48 20.5754 112.231 21.3739 111.732 22.0726C111.249 22.7547 110.567 23.287 109.686 23.6696C108.821 24.0522 107.831 24.2435 106.716 24.2435Z" fill="#0070F9"/>
<path d="M127.061 23.2414C127.264 23.5092 127.073 23.8942 126.737 23.8942H123.302C123.091 23.8942 122.892 23.7924 122.769 23.6207L118.698 17.9553L117.9 18.7538V23.2163C117.9 23.5907 117.596 23.8942 117.222 23.8942H114.934C114.56 23.8942 114.256 23.5907 114.256 23.2163V4.80911C114.256 4.43469 114.56 4.13116 114.934 4.13116H117.222C117.596 4.13116 117.9 4.43469 117.9 4.80911V14.1624L122.046 9.65812C122.171 9.52307 122.346 9.44622 122.53 9.44622H126.225C126.588 9.44622 126.769 9.88437 126.513 10.1406L121.169 15.4849L127.061 23.2414Z" fill="#0070F9"/>
</svg>
