<?xml version="1.0" encoding="UTF-8"?>
<svg version="1.1" xmlns="http://www.w3.org/2000/svg" width="420" height="111">
<path d="M0 0 C138.6 0 277.2 0 420 0 C420 36.63 420 73.26 420 111 C281.4 111 142.8 111 0 111 C0 74.37 0 37.74 0 0 Z " fill="#F8F8F9" transform="translate(0,0)"/>
<path d="M0 0 C0.69931641 0.00386719 1.39863281 0.00773437 2.11914062 0.01171875 C7.08045841 0.09494682 11.37076191 0.6860873 16.0625 2.25 C16.0625 2.91 16.0625 3.57 16.0625 4.25 C17.14337891 4.39695312 17.14337891 4.39695312 18.24609375 4.546875 C21.4569998 5.34848816 23.43469353 6.58726279 26.125 8.5 C26.96160156 9.08265625 27.79820313 9.6653125 28.66015625 10.265625 C33.21558911 14.02848662 35.60008471 17.97793593 37.75 23.4375 C38.16636719 24.48292969 38.58273438 25.52835938 39.01171875 26.60546875 C39.35847656 27.47816406 39.70523438 28.35085937 40.0625 29.25 C40.5575 30.24 40.5575 30.24 41.0625 31.25 C41.60420885 39.67773966 41.63027711 47.46855509 38.0625 55.25 C37.7840625 55.92289063 37.505625 56.59578125 37.21875 57.2890625 C32.89892324 66.93419294 26.14785458 72.26258507 17.0625 77.25 C16.0725 77.91 15.0825 78.57 14.0625 79.25 C9.67023608 80.49473905 5.2189041 80.43353898 0.6875 80.4375 C-0.04210938 80.44974609 -0.77171875 80.46199219 -1.5234375 80.47460938 C-6.37047115 80.4875925 -10.33751066 79.78535264 -14.9375 78.25 C-14.9375 77.59 -14.9375 76.93 -14.9375 76.25 C-15.5975 76.20875 -16.2575 76.1675 -16.9375 76.125 C-24.87436049 73.81008236 -29.34519117 67.99854093 -33.39453125 61.0859375 C-34.15830078 59.68214844 -34.15830078 59.68214844 -34.9375 58.25 C-35.37449219 57.47914062 -35.81148437 56.70828125 -36.26171875 55.9140625 C-40.12686705 47.96677511 -40.71492608 37.07648938 -38.13671875 28.625 C-37.17947521 26.73268845 -36.10366848 25.01833548 -34.9375 23.25 C-34.4425 22.033125 -33.9475 20.81625 -33.4375 19.5625 C-30.51527122 13.10924477 -25.90462834 8.93283702 -19.9375 5.25 C-17.9375 4.75 -17.9375 4.75 -15.9375 4.25 C-15.6075 3.59 -15.2775 2.93 -14.9375 2.25 C-9.92819253 0.43771551 -5.32793529 -0.07151591 0 0 Z " fill="#307DCF" transform="translate(54.9375,17.75)"/>
<path d="M0 0 C0.76550171 -0.00570007 1.53100342 -0.01140015 2.31970215 -0.01727295 C3.93691632 -0.02671034 5.55414961 -0.03325192 7.17138672 -0.03710938 C9.64714853 -0.04683923 12.12208836 -0.07788298 14.59765625 -0.109375 C16.16926591 -0.11590302 17.74088149 -0.12115428 19.3125 -0.125 C20.05318726 -0.1373468 20.79387451 -0.1496936 21.55700684 -0.16241455 C24.41881668 -0.14998206 26.62099387 -0.10968272 29.12597656 1.35424805 C30.60379829 4.00627268 30.51103194 6.08748886 30.484375 9.11328125 C30.47921875 10.26763672 30.4740625 11.42199219 30.46875 12.61132812 C30.448125 13.81724609 30.4275 15.02316406 30.40625 16.265625 C30.40109375 17.47541016 30.3959375 18.68519531 30.390625 19.93164062 C30.3104635 28.89469799 30.3104635 28.89469799 29.15625 31.203125 C28.49625 31.203125 27.83625 31.203125 27.15625 31.203125 C27.15625 31.863125 27.15625 32.523125 27.15625 33.203125 C23.85625 33.203125 20.55625 33.203125 17.15625 33.203125 C17.15625 34.193125 17.15625 35.183125 17.15625 36.203125 C19.13625 36.203125 21.11625 36.203125 23.15625 36.203125 C22.82625 37.523125 22.49625 38.843125 22.15625 40.203125 C13.57625 40.203125 4.99625 40.203125 -3.84375 40.203125 C-4.17375 38.883125 -4.50375 37.563125 -4.84375 36.203125 C-2.86375 36.203125 -0.88375 36.203125 1.15625 36.203125 C1.15625 35.213125 1.15625 34.223125 1.15625 33.203125 C-2.47375 33.203125 -6.10375 33.203125 -9.84375 33.203125 C-11.86458837 29.16144827 -12.0912174 27.56229866 -12.07421875 23.1953125 C-12.07228516 22.04417969 -12.07035156 20.89304687 -12.06835938 19.70703125 C-12.05611328 18.50949219 -12.04386719 17.31195313 -12.03125 16.078125 C-12.03060547 14.87285156 -12.02996094 13.66757812 -12.02929688 12.42578125 C-11.98413584 3.48389668 -11.98413584 3.48389668 -10.84375 1.203125 C-7.19159768 -0.01425911 -3.80458992 0.02182978 0 0 Z " fill="#3281D2" transform="translate(46.84375,37.796875)"/>
<path d="M0 0 C14.77777778 0 14.77777778 0 19.8125 3.125 C21.7698628 6.21557284 21.66653191 9.51298568 21 13 C19 15.5 19 15.5 17 17 C18.0841347 20.07171498 19.30498007 22.4574701 21.125 25.1875 C23 28 23 28 23 30 C23.66 30 24.32 30 25 30 C25.0825 29.07960938 25.165 28.15921875 25.25 27.2109375 C26.02823298 21.77152742 28.08462148 16.74830268 30 11.625 C30.36867187 10.61566406 30.73734375 9.60632813 31.1171875 8.56640625 C33.85344483 1.14655517 33.85344483 1.14655517 35 0 C37.67058851 -0.14115161 40.32432238 -0.04247107 43 0 C46.92238492 10.25750833 50.60808695 20.55410848 54 31 C50.625 31.1875 50.625 31.1875 47 31 C45 28 45 28 45 24 C41.04 24 37.08 24 33 24 C32.34 26.31 31.68 28.62 31 31 C26.17708748 31.66223071 21.79164681 31.97617339 17 31 C14.41276991 28.33958703 13.0103243 25.84887548 11.4296875 22.50390625 C10.95789063 21.67761719 10.48609375 20.85132812 10 20 C8.68 19.67 7.36 19.34 6 19 C6 22.96 6 26.92 6 31 C4.02 31 2.04 31 0 31 C0 20.77 0 10.54 0 0 Z " fill="#2BABE2" transform="translate(193,40)"/>
<path d="M0 0 C0.76550171 -0.00570007 1.53100342 -0.01140015 2.31970215 -0.01727295 C3.93691632 -0.02671034 5.55414961 -0.03325192 7.17138672 -0.03710938 C9.64714853 -0.04683923 12.12208836 -0.07788298 14.59765625 -0.109375 C16.16926591 -0.11590302 17.74088149 -0.12115428 19.3125 -0.125 C20.05318726 -0.1373468 20.79387451 -0.1496936 21.55700684 -0.16241455 C24.41881668 -0.14998206 26.62099387 -0.10968272 29.12597656 1.35424805 C30.60379829 4.00627268 30.51103194 6.08748886 30.484375 9.11328125 C30.47921875 10.26763672 30.4740625 11.42199219 30.46875 12.61132812 C30.448125 13.81724609 30.4275 15.02316406 30.40625 16.265625 C30.40109375 17.47541016 30.3959375 18.68519531 30.390625 19.93164062 C30.3104635 28.89469799 30.3104635 28.89469799 29.15625 31.203125 C28.49625 31.203125 27.83625 31.203125 27.15625 31.203125 C27.15625 31.863125 27.15625 32.523125 27.15625 33.203125 C23.85625 33.203125 20.55625 33.203125 17.15625 33.203125 C17.15625 34.193125 17.15625 35.183125 17.15625 36.203125 C19.13625 36.203125 21.11625 36.203125 23.15625 36.203125 C22.82625 37.523125 22.49625 38.843125 22.15625 40.203125 C13.57625 40.203125 4.99625 40.203125 -3.84375 40.203125 C-4.17375 38.883125 -4.50375 37.563125 -4.84375 36.203125 C-2.86375 36.203125 -0.88375 36.203125 1.15625 36.203125 C1.15625 35.213125 1.15625 34.223125 1.15625 33.203125 C-2.47375 33.203125 -6.10375 33.203125 -9.84375 33.203125 C-11.86458837 29.16144827 -12.0912174 27.56229866 -12.07421875 23.1953125 C-12.07228516 22.04417969 -12.07035156 20.89304687 -12.06835938 19.70703125 C-12.05611328 18.50949219 -12.04386719 17.31195313 -12.03125 16.078125 C-12.03060547 14.87285156 -12.02996094 13.66757812 -12.02929688 12.42578125 C-11.98413584 3.48389668 -11.98413584 3.48389668 -10.84375 1.203125 C-7.19159768 -0.01425911 -3.80458992 0.02182978 0 0 Z M-8.84375 5.203125 C-8.94307153 6.89871226 -8.97455007 8.59838247 -8.9765625 10.296875 C-8.97785156 11.32683594 -8.97914062 12.35679688 -8.98046875 13.41796875 C-8.97660156 14.50207031 -8.97273438 15.58617187 -8.96875 16.703125 C-8.97261719 17.78722656 -8.97648437 18.87132812 -8.98046875 19.98828125 C-8.97917969 21.01824219 -8.97789063 22.04820313 -8.9765625 23.109375 C-8.97543457 24.06134766 -8.97430664 25.01332031 -8.97314453 25.99414062 C-9.09074456 28.17764638 -9.09074456 28.17764638 -7.84375 29.203125 C-5.32280924 29.29160243 -2.82944107 29.31839801 -0.30859375 29.30078125 C0.44465683 29.2993663 1.19790741 29.29795135 1.97398376 29.29649353 C4.3889456 29.29087876 6.80381601 29.27832383 9.21875 29.265625 C10.85221221 29.2606119 12.48567586 29.25604866 14.11914062 29.25195312 C18.1315743 29.24175375 22.14380936 29.22218145 26.15625 29.203125 C26.15625 20.953125 26.15625 12.703125 26.15625 4.203125 C21.33237933 4.1802148 16.50869611 4.16028814 11.68481445 4.14819336 C10.04255536 4.14315326 8.40030077 4.13632122 6.75805664 4.12768555 C4.40249521 4.11560574 2.04699291 4.10989361 -0.30859375 4.10546875 C-1.04714096 4.10030746 -1.78568817 4.09514618 -2.5466156 4.08982849 C-5.98341494 3.77686781 -5.98341494 3.77686781 -8.84375 5.203125 Z " fill="#E5EFF9" transform="translate(46.84375,37.796875)"/>
<path d="M0 0 C14 0 14 0 19 4 C19.59375 6.25390625 19.59375 6.25390625 19.5 8.5625 C19.4896875 9.32691406 19.479375 10.09132813 19.46875 10.87890625 C18.8995363 13.45459823 18.07446695 14.40855845 16 16 C15.34 16 14.68 16 14 16 C14.33773438 16.66386719 14.67546875 17.32773437 15.0234375 18.01171875 C15.46945312 18.89472656 15.91546875 19.77773438 16.375 20.6875 C16.81585938 21.55761719 17.25671875 22.42773438 17.7109375 23.32421875 C18.92664268 25.84772799 19.99260958 28.38737532 21 31 C19.68 31 18.36 31 17 31 C15.03491307 28.02545061 13.55354265 24.91772266 11.9765625 21.72265625 C9.9575307 18.27178562 9.9575307 18.27178562 4 18 C4 22.29 4 26.58 4 31 C2.68 31 1.36 31 0 31 C0 20.77 0 10.54 0 0 Z " fill="#504E56" transform="translate(374,40)"/>
<path d="M0 0 C1.98 0 3.96 0 6 0 C6.01981934 0.62044189 6.03963867 1.24088379 6.06005859 1.88012695 C6.15531845 4.69134537 6.26499302 7.50182166 6.375 10.3125 C6.4059375 11.28896484 6.436875 12.26542969 6.46875 13.27148438 C6.50742188 14.20927734 6.54609375 15.14707031 6.5859375 16.11328125 C6.6173584 16.97735596 6.6487793 17.84143066 6.68115234 18.73168945 C6.87188037 21.27742445 6.87188037 21.27742445 9 24 C12.5 24.41666667 12.5 24.41666667 16 24 C18.52128356 21.47871644 18.29353069 20.48760987 18.4140625 16.9921875 C18.45273438 16.00605469 18.49140625 15.01992188 18.53125 14.00390625 C18.5621875 12.97136719 18.593125 11.93882813 18.625 10.875 C18.66367188 9.83472656 18.70234375 8.79445313 18.7421875 7.72265625 C18.83664766 5.14861689 18.92221214 2.57458845 19 0 C20.98 0 22.96 0 25 0 C25.08736736 3.72901814 25.14051482 7.45777165 25.1875 11.1875 C25.21263672 12.24259766 25.23777344 13.29769531 25.26367188 14.38476562 C25.27333984 15.40634766 25.28300781 16.42792969 25.29296875 17.48046875 C25.3086792 18.41785889 25.32438965 19.35524902 25.34057617 20.32104492 C24.81497415 24.45540402 23.03299822 27.09221368 19.9375 29.8125 C15.59576638 31.56766891 11.61229552 31.81046726 7 31 C3.88113422 29.30904867 1.60981146 27.21962291 0 24 C-0.08471364 22.18658158 -0.10721083 20.37005839 -0.09765625 18.5546875 C-0.09443359 17.47832031 -0.09121094 16.40195312 -0.08789062 15.29296875 C-0.07951172 14.16503906 -0.07113281 13.03710938 -0.0625 11.875 C-0.05798828 10.73933594 -0.05347656 9.60367188 -0.04882812 8.43359375 C-0.03701615 5.62234362 -0.02054507 2.8111977 0 0 Z " fill="#29ABE2" transform="translate(112,40)"/>
<path d="M0 0 C1.32 0 2.64 0 4 0 C4.14622803 0.60062256 4.29245605 1.20124512 4.44311523 1.82006836 C5.10425632 4.52678678 5.77080352 7.23214485 6.4375 9.9375 C6.66759766 10.88302734 6.89769531 11.82855469 7.13476562 12.80273438 C7.46831055 14.15141602 7.46831055 14.15141602 7.80859375 15.52734375 C8.01282959 16.35999756 8.21706543 17.19265137 8.42749023 18.05053711 C8.82696642 19.98670284 8.82696642 19.98670284 10 21 C10.26478149 20.15236084 10.26478149 20.15236084 10.53491211 19.28759766 C11.33402691 16.73284788 12.13573119 14.17891803 12.9375 11.625 C13.21529297 10.73554687 13.49308594 9.84609375 13.77929688 8.9296875 C14.04677734 8.07890625 14.31425781 7.228125 14.58984375 6.3515625 C14.83597412 5.56604004 15.08210449 4.78051758 15.33569336 3.97119141 C16 2 16 2 17 0 C18.32 0 19.64 0 21 0 C24.465 11.385 24.465 11.385 28 23 C29.60177162 16.55342502 29.60177162 16.55342502 31.20092773 10.10620117 C31.40145752 9.30158447 31.6019873 8.49696777 31.80859375 7.66796875 C32.01282959 6.84578857 32.21706543 6.0236084 32.42749023 5.17651367 C32.88624158 3.43247603 33.42972637 1.71082088 34 0 C35.32 0.33 36.64 0.66 38 1 C37.02441187 4.95175902 36.04574544 8.90274143 35.06420898 12.85302734 C34.73067705 14.19721785 34.39798982 15.54161824 34.06616211 16.88623047 C33.58929559 18.8179319 33.10914711 20.7488222 32.62890625 22.6796875 C32.34088135 23.84226074 32.05285645 25.00483398 31.75610352 26.20263672 C31 29 31 29 30 31 C28.68 31 27.36 31 26 31 C23.23522439 23.0846018 20.91072224 15.16399501 19 7 C18.67386719 7.97839844 18.34773438 8.95679688 18.01171875 9.96484375 C15.67447917 16.9765625 13.33723958 23.98828125 11 31 C10.01 31 9.02 31 8 31 C5.58716827 24.22353642 3.50136857 17.41118902 1.75 10.4375 C1.48751465 9.40206055 1.48751465 9.40206055 1.21972656 8.34570312 C0.51616849 5.48334009 0 2.95981632 0 0 Z " fill="#504F58" transform="translate(308,40)"/>
<path d="M0 0 C9.57 0 19.14 0 29 0 C25.14969783 3.85030217 21.78209524 6.64570953 17.25 9.4375 C16.011289 10.21546199 14.77300824 10.99410943 13.53515625 11.7734375 C12.93461426 12.14952148 12.33407227 12.52560547 11.71533203 12.91308594 C8.62150069 14.8734812 5.59971479 16.94030544 2.57421875 19.00390625 C1 20 1 20 0 20 C0 13.4 0 6.8 0 0 Z " fill="#F5F9FC" transform="translate(41,44)"/>
<path d="M0 0 C2.31 0 4.62 0 7 0 C7 8.25 7 16.5 7 25 C10.96 25 14.92 25 19 25 C19 26.98 19 28.96 19 31 C12.73 31 6.46 31 0 31 C0 20.77 0 10.54 0 0 Z " fill="#35AFE4" transform="translate(144,40)"/>
<path d="M0 0 C7.59 0 15.18 0 23 0 C23 1.65 23 3.3 23 5 C20.03 5 17.06 5 14 5 C14 13.58 14 22.16 14 31 C12.02 31 10.04 31 8 31 C8 22.42 8 13.84 8 5 C5.36 5 2.72 5 0 5 C0 3.35 0 1.7 0 0 Z " fill="#26AAE2" transform="translate(166,40)"/>
<path d="M0 0 C5.94 0 11.88 0 18 0 C18 0.99 18 1.98 18 3 C13.38 3 8.76 3 4 3 C4 6.3 4 9.6 4 13 C8.29 13 12.58 13 17 13 C17 13.99 17 14.98 17 16 C12.71 16 8.42 16 4 16 C4 19.96 4 23.92 4 28 C8.62 28 13.24 28 18 28 C18 28.99 18 29.98 18 31 C12.06 31 6.12 31 0 31 C0 20.77 0 10.54 0 0 Z " fill="#57524F" transform="translate(350,40)"/>
<path d="M0 0 C5.94 0 11.88 0 18 0 C18 0.99 18 1.98 18 3 C13.38 3 8.76 3 4 3 C4 6.3 4 9.6 4 13 C8.29 13 12.58 13 17 13 C17 13.99 17 14.98 17 16 C12.71 16 8.42 16 4 16 C4 19.96 4 23.92 4 28 C8.62 28 13.24 28 18 28 C18 28.99 18 29.98 18 31 C12.06 31 6.12 31 0 31 C0 20.77 0 10.54 0 0 Z " fill="#57524F" transform="translate(287,40)"/>
<path d="M0 0 C1.86621094 0.16577148 1.86621094 0.16577148 4 1 C5.18847656 3.31665039 5.18847656 3.31665039 6.140625 6.34765625 C6.48867187 7.42724609 6.83671875 8.50683594 7.1953125 9.61914062 C7.71738281 11.32360352 7.71738281 11.32360352 8.25 13.0625 C8.79527344 14.77276367 8.79527344 14.77276367 9.3515625 16.51757812 C10.24929516 19.34071108 11.13128634 22.1678291 12 25 C12.23710693 24.31373535 12.47421387 23.6274707 12.71850586 22.92041016 C13.79009183 19.82144971 14.86376926 16.72321794 15.9375 13.625 C16.31068359 12.54476562 16.68386719 11.46453125 17.06835938 10.3515625 C17.42607422 9.3203125 17.78378906 8.2890625 18.15234375 7.2265625 C18.48226318 6.27346191 18.81218262 5.32036133 19.15209961 4.33837891 C20 2 20 2 21 0 C22.32 0.33 23.64 0.66 25 1 C21.37 10.9 17.74 20.8 14 31 C12.68 31 11.36 31 10 31 C8.56975258 27.06948228 7.14576919 23.13676931 5.72753906 19.2019043 C5.24422865 17.86371832 4.75921402 16.52614657 4.27246094 15.18920898 C3.57297655 13.26705444 2.87965723 11.34277196 2.1875 9.41796875 C1.76855469 8.26063232 1.34960938 7.1032959 0.91796875 5.91088867 C0 3 0 3 0 0 Z " fill="#54525C" transform="translate(247,40)"/>
<path d="M0 0 C1.43352212 0.00015908 2.86704998 0.00585132 4.30053711 0.01586914 C5.43041298 0.01799156 5.43041298 0.01799156 6.58311462 0.02015686 C8.99807646 0.02577163 11.41294687 0.03832656 13.82788086 0.05102539 C15.46134307 0.05603849 17.09480672 0.06060173 18.72827148 0.06469727 C22.74067671 0.07574585 26.75301326 0.09302033 30.76538086 0.11352539 C30.10538086 0.44352539 29.44538086 0.77352539 28.76538086 1.11352539 C28.76538086 2.10352539 28.76538086 3.09352539 28.76538086 4.11352539 C28.10538086 3.78352539 27.44538086 3.45352539 26.76538086 3.11352539 C24.6616309 2.9591133 22.55342967 2.863599 20.44506836 2.79711914 C19.18823242 2.75522461 17.93139648 2.71333008 16.63647461 2.67016602 C15.31776367 2.63084961 13.99905273 2.5915332 12.64038086 2.55102539 C11.30052335 2.50783027 9.9606793 2.46421566 8.62084961 2.42016602 C5.33582466 2.31381629 2.05061688 2.21314222 -1.23461914 2.11352539 C-0.90461914 8.38352539 -0.57461914 14.65352539 -0.23461914 21.11352539 C1.08538086 20.12352539 2.40538086 19.13352539 3.76538086 18.11352539 C4.42538086 18.44352539 5.08538086 18.77352539 5.76538086 19.11352539 C4.11538086 20.43352539 2.46538086 21.75352539 0.76538086 23.11352539 C10.66538086 23.44352539 20.56538086 23.77352539 30.76538086 24.11352539 C30.76538086 24.44352539 30.76538086 24.77352539 30.76538086 25.11352539 C25.94157284 25.13817729 21.11780119 25.15636232 16.29394531 25.16845703 C14.65168621 25.17349713 13.00943163 25.18032917 11.3671875 25.18896484 C9.01162607 25.20104465 6.65612377 25.20675678 4.30053711 25.21118164 C3.5619899 25.21634293 2.82344269 25.22150421 2.06251526 25.2268219 C0.29639998 25.22701789 -1.4695906 25.17547258 -3.23461914 25.11352539 C-4.91978868 23.42835585 -4.36469933 21.32584751 -4.36743164 19.01977539 C-4.36936523 17.47483398 -4.36936523 17.47483398 -4.37133789 15.89868164 C-4.3674707 14.81458008 -4.36360352 13.73047852 -4.35961914 12.61352539 C-4.36348633 11.52942383 -4.36735352 10.44532227 -4.37133789 9.32836914 C-4.37004883 8.2984082 -4.36875977 7.26844727 -4.36743164 6.20727539 C-4.36630371 5.25530273 -4.36517578 4.30333008 -4.36401367 3.32250977 C-4.1560291 -0.22814006 -3.65934222 0.12843189 0 0 Z " fill="#71A8E0" transform="translate(42.234619140625,41.886474609375)"/>
<path d="M0 0 C1.32 0 2.64 0 4 0 C4.14622803 0.60062256 4.29245605 1.20124512 4.44311523 1.82006836 C5.10425632 4.52678678 5.77080352 7.23214485 6.4375 9.9375 C6.66759766 10.88302734 6.89769531 11.82855469 7.13476562 12.80273438 C7.46831055 14.15141602 7.46831055 14.15141602 7.80859375 15.52734375 C8.01282959 16.35999756 8.21706543 17.19265137 8.42749023 18.05053711 C8.82696642 19.98670284 8.82696642 19.98670284 10 21 C11.32 17.04 12.64 13.08 14 9 C14.66 9.33 15.32 9.66 16 10 C15.5003731 17.49440349 13.56235522 23.95650263 11 31 C10.01 31 9.02 31 8 31 C5.58716827 24.22353642 3.50136857 17.41118902 1.75 10.4375 C1.48751465 9.40206055 1.48751465 9.40206055 1.21972656 8.34570312 C0.51616849 5.48334009 0 2.95981632 0 0 Z " fill="#5C5150" transform="translate(308,40)"/>
<path d="M0 0 C7.2 -0.36 7.2 -0.36 10.5 1.125 C12 3 12 3 12.5 6 C12 9 12 9 10.5 10.875 C6.87739877 12.50517055 3.95453342 12.19772667 0 12 C0 8.04 0 4.08 0 0 Z " fill="#F8F4EF" transform="translate(378,43)"/>
<path d="M0 0 C1.32 0 2.64 0 4 0 C5.0094696 3.08031416 6.00589621 6.1646959 7 9.25 C7.28617187 10.12269531 7.57234375 10.99539062 7.8671875 11.89453125 C8.13789063 12.73886719 8.40859375 13.58320312 8.6875 14.453125 C9.06455078 15.61569824 9.06455078 15.61569824 9.44921875 16.80175781 C10 19 10 19 10 23 C9.34 23 8.68 23 8 23 C7.67 23.99 7.34 24.98 7 26 C5.35 19.73 3.7 13.46 2 7 C1.34 8.65 0.68 10.3 0 12 C-0.99 11.01 -1.98 10.02 -3 9 C-2.01 6.03 -1.02 3.06 0 0 Z " fill="#57535A" transform="translate(325,40)"/>
<path d="M0 0 C0.99 0 1.98 0 3 0 C3 10.23 3 20.46 3 31 C2.01 31 1.02 31 0 31 C0 20.77 0 10.54 0 0 Z " fill="#454545" transform="translate(276,40)"/>
<path d="M0 0 C1.32 0.33 2.64 0.66 4 1 C3.125639 3.7793262 2.22707389 6.54641711 1.3125 9.3125 C1.06822266 10.09818359 0.82394531 10.88386719 0.57226562 11.69335938 C-1.39412641 17.54275341 -1.39412641 17.54275341 -4.70703125 20.04296875 C-5.46371094 20.35878906 -6.22039062 20.67460938 -7 21 C-5.180206 13.74839665 -2.93841629 6.87619244 0 0 Z " fill="#605352" transform="translate(268,40)"/>
<path d="M0 0 C1.32 0 2.64 0 4 0 C4.67076489 2.76989964 5.33676317 5.54079742 6 8.3125 C6.19078125 9.09818359 6.3815625 9.88386719 6.578125 10.69335938 C6.75859375 11.45068359 6.9390625 12.20800781 7.125 12.98828125 C7.29257812 13.68477783 7.46015625 14.38127441 7.6328125 15.09887695 C8 17 8 17 8 20 C6.68 19.67 5.36 19.34 4 19 C3.32900016 16.39688008 2.66304662 13.79264602 2 11.1875 C1.80921875 10.44951172 1.6184375 9.71152344 1.421875 8.95117188 C0.64737086 5.89464659 0 3.16626522 0 0 Z " fill="#524D55" transform="translate(308,40)"/>
<path d="M0 0 C6.875 0.875 6.875 0.875 8 2 C8.1875 4.4375 8.1875 4.4375 8 7 C6 9 6 9 2.875 9.125 C1.451875 9.063125 1.451875 9.063125 0 9 C0 6.03 0 3.06 0 0 Z " fill="#E3F0F6" transform="translate(199,45)"/>
<path d="M0 0 C0.66 0 1.32 0 2 0 C2.50512244 1.60256108 3.00391627 3.20711792 3.5 4.8125 C3.7784375 5.70582031 4.056875 6.59914063 4.34375 7.51953125 C5 10 5 10 5 13 C2.36 13 -0.28 13 -3 13 C-2.68991116 11.39536551 -2.37683713 9.79130769 -2.0625 8.1875 C-1.88847656 7.29417969 -1.71445313 6.40085937 -1.53515625 5.48046875 C-1 3 -1 3 0 0 Z " fill="#DCE8F2" transform="translate(231,46)"/>
<path d="M0 0 C0.66 0 1.32 0 2 0 C1.52309796 1.62566606 1.04340334 3.25051311 0.5625 4.875 C0.29566406 5.77992187 0.02882813 6.68484375 -0.24609375 7.6171875 C-1 10 -1 10 -2 12 C-3.32 12 -4.64 12 -6 12 C-6.33 9.69 -6.66 7.38 -7 5 C-6.34 4.67 -5.68 4.34 -5 4 C-4.67 4.66 -4.34 5.32 -4 6 C-3.525625 5.195625 -3.05125 4.39125 -2.5625 3.5625 C-1 1 -1 1 0 0 Z " fill="#4D4A51" transform="translate(263,59)"/>
<path d="M0 0 C1.32 0.33 2.64 0.66 4 1 C3.745504 2.48206495 3.47088238 3.96068615 3.1875 5.4375 C3.03667969 6.26121094 2.88585937 7.08492187 2.73046875 7.93359375 C2.48941406 8.61550781 2.24835938 9.29742187 2 10 C1.01 10.33 0.02 10.66 -1 11 C-1.66 11.99 -2.32 12.98 -3 14 C-2.48594831 9.03083364 -1.76615118 4.70973649 0 0 Z " fill="#675754" transform="translate(342,40)"/>
<path d="M0 0 C-1.39750048 3.15835107 -3.05198234 5.32272825 -5.5 7.75 C-6.41265625 8.67039062 -6.41265625 8.67039062 -7.34375 9.609375 C-9 11 -9 11 -11 11 C-11 11.99 -11 12.98 -11 14 C-11.66 14 -12.32 14 -13 14 C-11.17012674 8.66286966 -6.44616549 0 0 0 Z " fill="#5893D5" transform="translate(34,25)"/>
<path d="M0 0 C2.98479194 4.47718792 4 8.63824093 4 14 C3.34 14 2.68 14 2 14 C1.67 14.99 1.34 15.98 1 17 C0.63447197 15.58622218 0.28304505 14.16879424 -0.0625 12.75 C-0.25972656 11.96109375 -0.45695312 11.1721875 -0.66015625 10.359375 C-1.02181248 7.8485662 -0.68896159 6.4089566 0 4 C0 2.68 0 1.36 0 0 Z " fill="#676974" transform="translate(331,49)"/>
<path d="M0 0 C1.32 0 2.64 0 4 0 C4.73080266 1.97746603 5.39421747 3.98072489 6 6 C5.67 6.66 5.34 7.32 5 8 C3.68 8 2.36 8 1 8 C-0.35439668 5.29120665 -0.06501451 2.99066732 0 0 Z " fill="#5B5655" transform="translate(333,63)"/>
<path d="M0 0 C1.32 0.33 2.64 0.66 4 1 C3.3125 3.875 3.3125 3.875 2 7 C-0.625 8.375 -0.625 8.375 -3 9 C-2.01 6.03 -1.02 3.06 0 0 Z " fill="#605656" transform="translate(268,40)"/>
<path d="M0 0 C0.66 0.33 1.32 0.66 2 1 C1.67 3.97 1.34 6.94 1 10 C0.01 9.01 -0.98 8.02 -2 7 C-1.34 4.69 -0.68 2.38 0 0 Z " fill="#675751" transform="translate(322,49)"/>
<path d="M0 0 C0.66 0 1.32 0 2 0 C1.1875 2.9375 1.1875 2.9375 0 6 C-0.99 6.33 -1.98 6.66 -3 7 C-2.25 2.25 -2.25 2.25 0 0 Z " fill="#544C4F" transform="translate(267,47)"/>
<path d="M0 0 C0.99 0 1.98 0 3 0 C3.33 2.31 3.66 4.62 4 7 C3.01 7.495 3.01 7.495 2 8 C1.34 5.36 0.68 2.72 0 0 Z " fill="#5B4A45" transform="translate(328,49)"/>
</svg>
